<?xml version="1.0" encoding="UTF-8" standalone="no"?>
<svg
   width="531.1767pt"
   height="396.61124pt"
   viewBox="0 0 531.17669 396.61124"
   version="1.1"
   id="svg97"
   sodipodi:docname="Si-bandStrukture-whole.svg"
   inkscape:version="1.3.2 (091e20e, 2023-11-25)"
   xmlns:inkscape="http://www.inkscape.org/namespaces/inkscape"
   xmlns:sodipodi="http://sodipodi.sourceforge.net/DTD/sodipodi-0.dtd"
   xmlns:xlink="http://www.w3.org/1999/xlink"
   xmlns="http://www.w3.org/2000/svg"
   xmlns:svg="http://www.w3.org/2000/svg"
   xmlns:rdf="http://www.w3.org/1999/02/22-rdf-syntax-ns#"
   xmlns:cc="http://creativecommons.org/ns#"
   xmlns:dc="http://purl.org/dc/elements/1.1/">
  <sodipodi:namedview
     id="namedview97"
     pagecolor="#434343"
     bordercolor="#000000"
     borderopacity="0.25"
     inkscape:showpageshadow="2"
     inkscape:pageopacity="0.0"
     inkscape:pagecheckerboard="0"
     inkscape:deskcolor="#d1d1d1"
     inkscape:document-units="pt"
     inkscape:zoom="1.1708221"
     inkscape:cx="404.84374"
     inkscape:cy="298.08115"
     inkscape:window-width="1920"
     inkscape:window-height="1058"
     inkscape:window-x="1920"
     inkscape:window-y="0"
     inkscape:window-maximized="1"
     inkscape:current-layer="axes_1"
     showguides="false" />
  <metadata
     id="metadata1">
    <rdf:RDF>
      <cc:Work>
        <dc:type
           rdf:resource="http://purl.org/dc/dcmitype/StillImage" />
        <dc:date>2024-06-19T15:51:23.946767</dc:date>
        <dc:format>image/svg+xml</dc:format>
        <dc:creator>
          <cc:Agent>
            <dc:title>Matplotlib v3.6.3, https://matplotlib.org/</dc:title>
          </cc:Agent>
        </dc:creator>
      </cc:Work>
    </rdf:RDF>
  </metadata>
  <defs
     id="defs1">
    <style
       type="text/css"
       id="style1">*{stroke-linejoin: round; stroke-linecap: butt}</style>
    <defs
       id="defs78">
      <path
         id="DejaVuSans-42"
         d="M 1259,2228 V 519 h 1013 q 509,0 754,211 246,211 246,645 0,438 -246,645 -245,208 -754,208 z m 0,1919 V 2741 h 935 q 462,0 688,173 227,174 227,530 0,353 -227,528 -226,175 -688,175 z m -631,519 h 1613 q 722,0 1112,-300 391,-300 391,-853 0,-429 -200,-682 -200,-253 -588,-315 466,-100 724,-418 258,-317 258,-792 0,-625 -425,-966 Q 3088,0 2303,0 H 628 Z"
         style="fill:#ffffff;stroke:none;"
         transform="scale(0.015625)" />
      <path
         id="DejaVuSans-61"
         d="m 2194,1759 q -697,0 -966,-159 -269,-159 -269,-544 0,-306 202,-486 202,-179 548,-179 479,0 768,339 289,339 289,901 v 128 z m 1147,238 V 0 H 2766 V 531 Q 2569,213 2275,61 1981,-91 1556,-91 q -537,0 -855,302 -317,302 -317,808 0,590 395,890 396,300 1180,300 h 807 v 57 q 0,397 -261,614 -261,217 -733,217 -300,0 -585,-72 -284,-72 -546,-216 v 532 q 315,122 612,182 297,61 578,61 760,0 1135,-394 375,-393 375,-1193 z"
         style="fill:#ffffff;stroke:none;"
         transform="scale(0.015625)" />
      <path
         id="DejaVuSans-64"
         d="m 2906,2969 v 1894 h 575 V 0 H 2906 V 525 Q 2725,213 2448,61 2172,-91 1784,-91 1150,-91 751,415 353,922 353,1747 q 0,825 398,1331 399,506 1033,506 388,0 664,-152 277,-151 458,-463 z M 947,1747 q 0,-634 261,-995 261,-361 717,-361 456,0 718,361 263,361 263,995 0,634 -263,995 -262,361 -718,361 -456,0 -717,-361 -261,-361 -261,-995 z"
         style="fill:#ffffff;stroke:none;"
         transform="scale(0.015625)" />
      <path
         id="DejaVuSans-73"
         d="m 2834,3397 v -544 q -243,125 -506,187 -262,63 -544,63 -428,0 -642,-131 -214,-131 -214,-394 0,-200 153,-314 153,-114 616,-217 l 197,-44 q 612,-131 870,-370 258,-239 258,-667 0,-488 -386,-773 Q 2250,-91 1575,-91 1294,-91 989,-36 684,19 347,128 v 594 q 319,-166 628,-249 309,-82 613,-82 406,0 624,139 219,139 219,392 0,234 -158,359 -157,125 -692,241 l -200,47 q -534,112 -772,345 -237,233 -237,639 0,494 350,762 350,269 994,269 318,0 599,-47 282,-46 519,-140 z"
         style="fill:#ffffff;stroke:none;"
         transform="scale(0.015625)" />
      <path
         id="DejaVuSans-74"
         d="M 1172,4494 V 3500 H 2356 V 3053 H 1172 V 1153 q 0,-428 117,-550 117,-122 477,-122 h 590 V 0 H 1766 Q 1100,0 847,248 594,497 594,1153 V 3053 H 172 v 447 h 422 v 994 z"
         style="fill:#ffffff;stroke:none;"
         transform="scale(0.015625)" />
      <path
         id="DejaVuSans-75"
         d="m 544,1381 v 2119 h 575 V 1403 q 0,-497 193,-746 194,-248 582,-248 465,0 735,297 271,297 271,810 v 1984 h 575 V 0 H 2900 V 538 Q 2691,219 2414,64 2138,-91 1772,-91 1169,-91 856,284 544,659 544,1381 Z m 1447,2203 z"
         style="fill:#ffffff;stroke:none;"
         transform="scale(0.015625)" />
      <path
         id="DejaVuSans-63"
         d="m 3122,3366 v -538 q -244,135 -489,202 -245,67 -495,67 -560,0 -870,-355 -309,-354 -309,-995 0,-641 309,-996 310,-354 870,-354 250,0 495,67 245,67 489,202 V 134 Q 2881,22 2623,-34 2366,-91 2075,-91 1284,-91 818,406 353,903 353,1747 q 0,856 470,1346 471,491 1290,491 265,0 518,-55 253,-54 491,-163 z"
         style="fill:#ffffff;stroke:none;"
         transform="scale(0.015625)" />
      <path
         id="DejaVuSans-6f"
         d="m 1959,3097 q -462,0 -731,-361 -269,-361 -269,-989 0,-628 267,-989 268,-361 733,-361 460,0 728,362 269,363 269,988 0,622 -269,986 -268,364 -728,364 z m 0,487 q 750,0 1178,-488 429,-487 429,-1349 Q 3566,888 3137,398 2709,-91 1959,-91 1206,-91 779,398 353,888 353,1747 q 0,862 426,1349 427,488 1180,488 z"
         transform="scale(0.015625)" />
      <path
         id="DejaVuSans-66"
         d="m 2375,4863 v -479 h -550 q -309,0 -430,-125 -120,-125 -120,-450 v -309 h 947 V 3053 H 1275 V 0 H 697 V 3053 H 147 v 447 h 550 v 244 q 0,584 272,851 272,268 862,268 z"
         style="fill:#ffffff;stroke:none;"
         transform="scale(0.015625)" />
      <path
         id="DejaVuSans-53"
         d="m 3425,4513 v -616 q -359,172 -678,256 -319,85 -616,85 -515,0 -795,-200 -280,-200 -280,-569 0,-310 186,-468 186,-157 705,-254 l 381,-78 q 706,-135 1042,-474 336,-339 336,-907 0,-679 -455,-1029 -454,-350 -1332,-350 -331,0 -705,75 -373,75 -773,222 v 650 q 384,-215 753,-325 369,-109 725,-109 540,0 834,212 294,213 294,607 0,343 -211,537 -211,194 -692,291 l -385,75 q -706,140 -1022,440 -315,300 -315,835 0,619 436,975 436,356 1201,356 329,0 669,-60 341,-59 697,-177 z"
         style="fill:#ffffff;stroke:none;"
         transform="scale(0.015625)" />
      <path
         id="DejaVuSans-69"
         d="m 603,3500 h 575 V 0 H 603 Z m 0,1363 h 575 V 4134 H 603 Z"
         style="fill:#ffffff;stroke:none;"
         transform="scale(0.015625)" />
    </defs>
    <defs
       id="defs3">
      <path
         id="m567b8379ab"
         d="M 0,0 V 3.5"
         style="stroke:#ffffffff;stroke-width:0.8" />
    </defs>
    <defs
       id="defs25">
      <path
         id="m539120c8fd"
         d="M 0,0 H -3.5"
         style="stroke:#ffffffff;stroke-width:0.8" />
    </defs>
    <defs
       id="defs24">
      <path
         id="DejaVuSans-Bold-6b"
         d="M 538,4863 H 1656 V 2216 L 2944,3500 H 4244 L 2534,1894 4378,0 H 3022 L 1656,1459 V 0 H 538 Z"
         style="fill:#ffffff;stroke:none;"
         transform="scale(0.015625)" />
    </defs>
    <defs
       id="defs48">
      <path
         id="DejaVuSans-45"
         d="M 628,4666 H 3578 V 4134 H 1259 V 2753 H 3481 V 2222 H 1259 V 531 H 3634 V 0 H 628 Z"
         style="fill:#ffffff;stroke:none;"
         transform="scale(0.015625)" />
      <path
         id="DejaVuSans-6e"
         d="M 3513,2113 V 0 h -575 v 2094 q 0,497 -194,743 -194,247 -581,247 -466,0 -735,-297 -269,-296 -269,-809 V 0 H 581 v 3500 h 578 v -544 q 207,316 486,472 280,156 646,156 603,0 912,-373 310,-373 310,-1098 z"
         style="fill:#ffffff;stroke:none;"
         transform="scale(0.015625)" />
      <path
         id="DejaVuSans-65"
         d="M 3597,1894 V 1613 H 953 q 38,-594 358,-905 320,-311 892,-311 331,0 642,81 311,81 618,244 V 178 Q 3153,47 2828,-22 2503,-91 2169,-91 1331,-91 842,396 353,884 353,1716 q 0,859 464,1363 464,505 1252,505 706,0 1117,-455 411,-454 411,-1235 z m -575,169 q -6,471 -264,752 -258,282 -683,282 -481,0 -770,-272 -289,-272 -333,-766 z"
         style="fill:#ffffff;stroke:none;"
         transform="scale(0.015625)" />
      <path
         id="DejaVuSans-72"
         d="m 2631,2963 q -97,56 -211,82 -114,27 -251,27 -488,0 -749,-317 -261,-317 -261,-911 V 0 H 581 v 3500 h 578 v -544 q 182,319 472,473 291,155 707,155 59,0 131,-8 72,-7 159,-23 z"
         style="fill:#ffffff;stroke:none;"
         transform="scale(0.015625)" />
      <path
         id="DejaVuSans-67"
         d="m 2906,1791 q 0,625 -258,968 -257,344 -723,344 -462,0 -720,-344 -258,-343 -258,-968 0,-622 258,-966 258,-344 720,-344 466,0 723,344 258,344 258,966 z M 3481,434 q 0,-893 -397,-1329 -396,-436 -1215,-436 -303,0 -572,45 -269,45 -522,139 v 559 q 253,-137 500,-202 247,-66 503,-66 566,0 847,295 281,295 281,892 V 616 Q 2728,306 2450,153 2172,0 1784,0 1141,0 747,490 353,981 353,1791 q 0,812 394,1302 394,491 1037,491 388,0 666,-153 278,-153 456,-462 v 531 h 575 z"
         style="fill:#ffffff;stroke:none;"
         transform="scale(0.015625)" />
      <path
         id="DejaVuSans-79"
         d="m 2059,-325 q -243,-625 -475,-815 -231,-191 -618,-191 H 506 v 481 h 338 q 237,0 368,113 132,112 291,531 L 1606,56 191,3500 H 800 L 1894,763 2988,3500 h 609 z"
         transform="scale(0.015625)" />
      <path
         id="DejaVuSans-20"
         transform="scale(0.015625)"
         d="" />
      <path
         id="DejaVuSans-28"
         d="m 1984,4856 q -418,-718 -622,-1422 -203,-703 -203,-1425 0,-721 205,-1429 205,-708 620,-1424 h -500 q -468,735 -701,1444 -233,709 -233,1409 0,697 231,1403 232,707 703,1444 z"
         style="fill:#ffffff;stroke:none;"
         transform="scale(0.015625)" />
      <path
         id="DejaVuSans-56"
         d="M 1831,0 50,4666 H 709 L 2188,738 3669,4666 h 656 L 2547,0 Z"
         transform="scale(0.015625)" />
      <path
         id="DejaVuSans-29"
         d="m 513,4856 h 500 q 468,-737 701,-1444 233,-706 233,-1403 0,-700 -233,-1409 -233,-709 -701,-1444 H 513 q 415,716 620,1424 205,708 205,1429 0,722 -205,1425 -205,704 -620,1422 z"
         style="fill:#ffffff;stroke:none;"
         transform="scale(0.015625)" />
    </defs>
    <defs
       id="defs5">
      <path
         id="DejaVuSans-393"
         d="M 628,0 V 4666 H 3531 V 4134 H 1259 V 0 Z"
         style="fill:#ffffff;stroke:none;"
         transform="scale(0.015625)" />
    </defs>
    <defs
       id="defs11">
      <path
         id="DejaVuSans-4b"
         d="m 628,4666 h 631 V 2694 l 2094,1972 h 813 L 1850,2491 4331,0 H 3500 L 1259,2247 V 0 H 628 Z"
         style="fill:#ffffff;stroke:none;"
         transform="scale(0.015625)" />
    </defs>
    <defs
       id="defs13">
      <path
         id="DejaVuSans-55"
         d="m 556,4666 h 635 V 1831 q 0,-750 271,-1080 272,-329 882,-329 606,0 878,329 272,330 272,1080 v 2835 h 634 V 1753 Q 4128,841 3676,375 3225,-91 2344,-91 1459,-91 1007,375 556,841 556,1753 Z"
         transform="scale(0.015625)" />
    </defs>
    <defs
       id="defs9">
      <path
         id="DejaVuSans-57"
         d="m 213,4666 h 637 l 981,-3944 978,3944 h 710 l 981,-3944 978,3944 h 641 L 4947,0 H 4153 L 3169,4050 2175,0 h -794 z"
         transform="scale(0.015625)" />
    </defs>
    <defs
       id="defs7">
      <path
         id="DejaVuSans-58"
         d="m 403,4666 h 678 L 2241,2931 3406,4666 h 678 L 2584,2425 4184,0 H 3506 L 2194,1984 872,0 H 191 l 1665,2491 z"
         transform="scale(0.015625)" />
    </defs>
    <defs
       id="defs43">
      <path
         id="DejaVuSans-32"
         d="M 1228,531 H 3431 V 0 H 469 v 531 q 359,372 979,998 621,627 780,809 303,340 423,576 121,236 121,464 0,372 -261,606 -261,235 -680,235 -297,0 -627,-103 -329,-103 -704,-313 v 638 q 381,153 712,231 332,78 607,78 725,0 1156,-363 431,-362 431,-968 0,-288 -108,-546 -107,-257 -392,-607 -78,-91 -497,-524 Q 1991,1309 1228,531 Z"
         transform="scale(0.015625)" />
    </defs>
    <defs
       id="defs4">
      <path
         id="DejaVuSans-4c"
         d="m 628,4666 h 631 V 531 H 3531 V 0 H 628 Z"
         transform="scale(0.015625)" />
    </defs>
    <defs
       id="defs26">
      <path
         id="DejaVuSans-2212"
         d="M 678,2272 H 4684 V 1741 H 678 Z"
         transform="scale(0.015625)" />
      <path
         id="DejaVuSans-31"
         d="M 794,531 H 1825 V 4091 L 703,3866 v 575 l 1116,225 h 631 V 531 H 3481 V 0 H 794 Z"
         transform="scale(0.015625)" />
      <path
         id="DejaVuSans-30"
         d="m 2034,4250 q -487,0 -733,-480 -245,-479 -245,-1442 0,-959 245,-1439 246,-480 733,-480 491,0 736,480 246,480 246,1439 0,963 -246,1442 -245,480 -736,480 z m 0,500 q 785,0 1199,-621 414,-620 414,-1801 0,-1178 -414,-1799 -414,-620 -1199,-620 -784,0 -1198,620 -414,621 -414,1799 0,1181 414,1801 414,621 1198,621 z"
         transform="scale(0.015625)" />
    </defs>
    <defs
       id="defs30">
      <path
         id="DejaVuSans-35"
         d="M 691,4666 H 3169 V 4134 H 1269 V 2991 q 137,47 274,70 138,23 276,23 781,0 1237,-428 457,-428 457,-1159 Q 3513,744 3044,326 2575,-91 1722,-91 1428,-91 1123,-41 819,9 494,109 v 635 q 281,-153 581,-228 300,-75 634,-75 541,0 856,284 316,284 316,772 0,487 -316,771 -315,285 -856,285 -253,0 -505,-56 -251,-56 -513,-175 z"
         transform="scale(0.015625)" />
    </defs>
    <filter
       inkscape:collect="always"
       style="color-interpolation-filters:sRGB"
       id="filter39"
       x="-0.12469528"
       y="-0.10185052"
       width="1.2493906"
       height="1.203701">
      <feGaussianBlur
         inkscape:collect="always"
         stdDeviation="4.272 3.784"
         id="feGaussianBlur39" />
    </filter>
  </defs>
  <g
     id="axes_1"
     transform="translate(-90.830154,-52.2135)">
    <path
       d="M 151.69766,421.297 V 65.508"
       clip-path="url(#pd809ca9499)"
       style="fill:none;stroke:#808080;stroke-width:0.25;stroke-linecap:square;stroke-opacity:0.5"
       id="path3" />
    <use
       xlink:href="#m567b8379ab"
       x="151.69766"
       y="421.297"
       style="stroke:#ffffff;stroke-width:1;stroke-dasharray:none;stroke-opacity:1;fill:#404040;fill-opacity:1"
       id="use3" />
    <path
       d="M 207.18272,421.297 V 65.508"
       clip-path="url(#pd809ca9499)"
       style="fill:none;stroke:#808080;stroke-width:0.25;stroke-linecap:square;stroke-opacity:0.5"
       id="path4" />
    <use
       xlink:href="#m567b8379ab"
       x="207.18272"
       y="421.297"
       style="stroke:#ffffff;stroke-width:1;stroke-dasharray:none;stroke-opacity:1;fill:#404040;fill-opacity:1"
       id="use5" />
    <path
       d="M 271.25135,421.297 V 65.508"
       clip-path="url(#pd809ca9499)"
       style="fill:none;stroke:#808080;stroke-width:0.25;stroke-linecap:square;stroke-opacity:0.5"
       id="path6" />
    <use
       xlink:href="#m567b8379ab"
       x="271.25134"
       y="421.297"
       style="stroke:#ffffff;stroke-width:1;stroke-dasharray:none;stroke-opacity:1;fill:#404040;fill-opacity:1"
       id="use7" />
    <path
       d="M 303.28567,421.297 V 65.508"
       clip-path="url(#pd809ca9499)"
       style="fill:none;stroke:#808080;stroke-width:0.25;stroke-linecap:square;stroke-opacity:0.5"
       id="path8" />
    <use
       xlink:href="#m567b8379ab"
       x="303.28568"
       y="421.297"
       style="stroke:#ffffff;stroke-width:1;stroke-dasharray:none;stroke-opacity:1;fill:#404040;fill-opacity:1"
       id="use9" />
    <path
       d="M 325.93735,421.297 V 65.508"
       clip-path="url(#pd809ca9499)"
       style="fill:none;stroke:#808080;stroke-width:0.25;stroke-linecap:square;stroke-opacity:0.5"
       id="path10" />
    <use
       xlink:href="#m567b8379ab"
       x="325.93735"
       y="421.297"
       style="stroke:#ffffff;stroke-width:1;stroke-dasharray:none;stroke-opacity:1;fill:#404040;fill-opacity:1"
       id="use11" />
    <path
       d="M 365.17121,421.297 V 65.508"
       clip-path="url(#pd809ca9499)"
       style="fill:none;stroke:#808080;stroke-width:0.25;stroke-linecap:square;stroke-opacity:0.5"
       id="path12" />
    <use
       xlink:href="#m567b8379ab"
       x="365.1712"
       y="421.297"
       style="stroke:#ffffff;stroke-width:1;stroke-dasharray:none;stroke-opacity:1;fill:#404040;fill-opacity:1"
       id="use13" />
    <path
       d="M 404.40508,421.297 V 65.508"
       clip-path="url(#pd809ca9499)"
       style="fill:none;stroke:#808080;stroke-width:0.25;stroke-linecap:square;stroke-opacity:0.5"
       id="path14" />
    <use
       xlink:href="#m567b8379ab"
       x="404.40509"
       y="421.297"
       style="stroke:#ffffff;stroke-width:1;stroke-dasharray:none;stroke-opacity:1;fill:#404040;fill-opacity:1"
       id="use15" />
    <path
       d="M 449.70844,421.297 V 65.508"
       clip-path="url(#pd809ca9499)"
       style="fill:none;stroke:#808080;stroke-width:0.25;stroke-linecap:square;stroke-opacity:0.5"
       id="path16" />
    <use
       xlink:href="#m567b8379ab"
       x="449.70844"
       y="421.297"
       style="stroke:#ffffff;stroke-width:1;stroke-dasharray:none;stroke-opacity:1;fill:#404040;fill-opacity:1"
       id="use17" />
    <path
       d="M 481.74275,421.297 V 65.508"
       clip-path="url(#pd809ca9499)"
       style="fill:none;stroke:#808080;stroke-width:0.25;stroke-linecap:square;stroke-opacity:0.5"
       id="path18" />
    <use
       xlink:href="#m567b8379ab"
       x="481.74277"
       y="421.297"
       style="stroke:#ffffff;stroke-width:1;stroke-dasharray:none;stroke-opacity:1;fill:#404040;fill-opacity:1"
       id="use19" />
    <path
       d="M 532.39346,421.297 V 65.508"
       clip-path="url(#pd809ca9499)"
       style="fill:none;stroke:#808080;stroke-width:0.25;stroke-linecap:square;stroke-opacity:0.5"
       id="path20" />
    <use
       xlink:href="#m567b8379ab"
       x="532.39343"
       y="421.297"
       style="stroke:#ffffff;stroke-width:1;stroke-dasharray:none;stroke-opacity:1;fill:#404040;fill-opacity:1"
       id="use21" />
    <path
       d="M 600.3485,421.297 V 65.508"
       clip-path="url(#pd809ca9499)"
       style="fill:none;stroke:#808080;stroke-width:0.25;stroke-linecap:square;stroke-opacity:0.5"
       id="path22" />
    <use
       xlink:href="#m567b8379ab"
       x="600.34851"
       y="421.297"
       style="stroke:#ffffff;stroke-width:1;stroke-dasharray:none;stroke-opacity:1;fill:#404040;fill-opacity:1"
       id="use23" />
    <path
       d="M 129.32103,384.32189 H 621.60686"
       clip-path="url(#pd809ca9499)"
       style="fill:none;stroke:#808080;stroke-width:0.25;stroke-linecap:square;stroke-opacity:0.5"
       id="path25" />
    <use
       xlink:href="#m539120c8fd"
       x="129.32103"
       y="384.3219"
       style="stroke:#ffffff;stroke-width:1;stroke-dasharray:none;stroke-opacity:1;fill:#404040;fill-opacity:1"
       id="use26" />
    <path
       d="M 129.32103,343.77363 H 621.60686"
       clip-path="url(#pd809ca9499)"
       style="fill:none;stroke:#808080;stroke-width:0.25;stroke-linecap:square;stroke-opacity:0.5"
       id="path29" />
    <use
       xlink:href="#m539120c8fd"
       x="129.32103"
       y="343.77362"
       style="stroke:#ffffff;stroke-width:1;stroke-dasharray:none;stroke-opacity:1;fill:#404040;fill-opacity:1"
       id="use30" />
    <path
       d="M 129.32103,303.22537 H 621.60686"
       clip-path="url(#pd809ca9499)"
       style="fill:none;stroke:#808080;stroke-width:0.25;stroke-linecap:square;stroke-opacity:0.5"
       id="path32" />
    <use
       xlink:href="#m539120c8fd"
       x="129.32103"
       y="303.22537"
       style="stroke:#ffffff;stroke-width:1;stroke-dasharray:none;stroke-opacity:1;fill:#404040;fill-opacity:1"
       id="use33" />
    <path
       d="M 129.32103,262.67712 H 621.60686"
       clip-path="url(#pd809ca9499)"
       style="fill:none;stroke:#808080;stroke-width:0.25;stroke-linecap:square;stroke-opacity:0.5"
       id="path34" />
    <use
       xlink:href="#m539120c8fd"
       x="129.32103"
       y="262.67712"
       style="stroke:#ffffff;stroke-width:1;stroke-dasharray:none;stroke-opacity:1;fill:#404040;fill-opacity:1"
       id="use35" />
    <path
       d="M 129.32103,222.12886 H 621.60686"
       clip-path="url(#pd809ca9499)"
       style="fill:none;stroke:#808080;stroke-width:0.25;stroke-linecap:square;stroke-opacity:0.5"
       id="path36" />
    <use
       xlink:href="#m539120c8fd"
       x="129.32103"
       y="222.12886"
       style="stroke:#ffffff;stroke-width:1;stroke-dasharray:none;stroke-opacity:1;fill:#404040;fill-opacity:1"
       id="use37" />
    <path
       d="M 129.32103,181.5806 H 621.60686"
       clip-path="url(#pd809ca9499)"
       style="fill:none;stroke:#808080;stroke-width:0.25;stroke-linecap:square;stroke-opacity:0.5"
       id="path39" />
    <use
       xlink:href="#m539120c8fd"
       x="129.32103"
       y="181.5806"
       style="stroke:#ffffff;stroke-width:1;stroke-dasharray:none;stroke-opacity:1;fill:#404040;fill-opacity:1"
       id="use40" />
    <path
       d="M 129.32103,141.03234 H 621.60686"
       clip-path="url(#pd809ca9499)"
       style="fill:none;stroke:#808080;stroke-width:0.25;stroke-linecap:square;stroke-opacity:0.5"
       id="path42" />
    <use
       xlink:href="#m539120c8fd"
       x="129.32103"
       y="141.03233"
       style="stroke:#ffffff;stroke-width:1;stroke-dasharray:none;stroke-opacity:1;fill:#404040;fill-opacity:1"
       id="use43" />
    <path
       d="M 129.32103,100.48408 H 621.60686"
       clip-path="url(#pd809ca9499)"
       style="fill:none;stroke:#808080;stroke-width:0.25;stroke-linecap:square;stroke-opacity:0.5"
       id="path45" />
    <use
       xlink:href="#m539120c8fd"
       x="129.32103"
       y="100.48408"
       style="stroke:#ffffff;stroke-width:1;stroke-dasharray:none;stroke-opacity:1;fill:#404040;fill-opacity:1"
       id="use46" />
    <use
       xlink:href="#DejaVuSans-20"
       x="350.10547"
       id="use55"
       transform="matrix(0,-0.088,-0.088,0,97.507154,269.357)" />
    <path
       d="m 151.69766,386.01032 1.78923,0.12246 1.78924,0.34952 2.01289,0.62931 2.23654,0.92694 3.13117,1.56435 6.03867,3.36551 6.03867,3.2917 4.47309,2.20096 4.24943,1.83927 4.02578,1.48893 3.80213,1.16374 3.80212,0.92044 3.57847,0.63823 3.57847,0.41359 3.57848,0.18734 3.57847,-0.0316 3.57847,-0.25545 3.57847,-0.48253 3.57847,-0.70797 3.57847,-0.93342 3.57847,-1.15725 3.57847,-1.37945 3.57848,-1.59841 4.02578,-2.05904 4.02578,-2.3291 4.02578,-2.59427 4.02578,-2.85298 4.24943,-3.28522 4.24944,-3.55446 4.69674,-4.22821 4.9204,-4.74609 2.4602,-2.36356 6.48598,-0.11281 7.8279,-0.38034 13.64292,-0.69662 4.02579,-0.0539 3.57847,1.4346 3.57847,1.18985 3.35482,0.89214 3.35481,0.67489 3.35482,0.45722 3.35482,0.23915 3.57847,0.23989 10.51176,1.29941 4.47309,0.2771 4.24943,0.0425 4.24944,-0.17809 4.47308,-0.40662 5.81502,-0.76798 3.80213,-0.52186 1.78923,0.58763 2.4602,1.07477 11.63003,5.38684 4.02578,1.49063 3.80213,1.1643 3.57847,0.86952 3.80213,0.67634 3.57847,0.40143 3.57847,0.1703 3.57847,-0.0584 3.57847,-0.28871 3.57847,-0.5182 3.80213,-0.80043 3.57847,-0.98362 3.80212,-1.28432 3.80213,-1.52194 4.02578,-1.85598 4.24944,-2.2072 4.92039,-2.82078 7.3806,-4.35399 6.03867,0.12732 8.05156,0.42357 11.40638,0.589 6.93329,0.31928 5.59136,1.66921 4.9204,1.23761 4.69674,0.94843 4.47309,0.67861 4.47309,0.45512 4.47309,0.2325 4.47309,0.0146 4.69674,-0.21248 4.69674,-0.43832 4.69675,-0.65826 2.68385,-0.46014 2.90751,1.3462 3.13116,1.69216 3.80213,2.3243 5.14405,3.43598 12.07734,8.15985 4.9204,3.01031 4.24943,2.35991 4.02578,2.00146 4.02578,1.75411 3.80213,1.41757 3.57847,1.11508 3.57847,0.89612 3.57847,0.67472 3.57848,0.45008 3.35481,0.21653 1.78924,0.0341 v 0"
       clip-path="url(#pd809ca9499)"
       style="fill:none;stroke:#ffffff;stroke-width:1.5;stroke-linecap:square;stroke-opacity:1;stroke-dasharray:none"
       id="path59" />
    <path
       d="m 151.69766,362.4474 1.34192,-0.10031 1.56558,-0.36258 1.56559,-0.61115 1.78923,-0.97202 1.78924,-1.22512 2.23654,-1.82873 2.4602,-2.32212 2.90751,-3.07802 3.35482,-3.9069 3.80212,-4.79224 4.24944,-5.71706 5.3677,-7.62405 13.19562,-18.97237 2.4602,-3.019 1.78923,-1.87787 1.56558,-1.32745 1.34193,-0.83657 1.11827,-0.44615 1.11827,-0.1945 1.34193,0.0408 1.34193,0.25272 1.34192,0.45891 1.56558,0.77323 1.78924,1.1559 2.01289,1.58423 2.4602,2.24823 2.90751,2.97125 3.80212,4.21678 5.36771,6.3115 9.8408,11.98671 12.07734,14.61822 7.15694,8.31555 6.03867,6.69022 5.14405,5.40679 0.44731,0.10558 6.48598,-0.11742 8.05156,-0.38748 12.52465,-0.61244 4.9204,-0.1476 2.90751,-1.10405 2.90751,-0.85978 3.13116,-0.67837 3.35481,-0.49048 3.80213,-0.33038 4.47309,-0.16779 2.68385,-0.1347 6.93329,-1.09562 4.9204,-0.64488 4.02578,-0.3033 3.80213,-0.061 3.80212,0.16462 4.02578,0.40086 5.14405,0.75817 5.59137,0.86109 1.78923,-0.58276 7.15694,-2.59079 2.4602,-0.53337 2.4602,-0.30257 2.68386,-0.11167 3.57847,0.0949 6.03867,0.43857 7.60425,0.49825 5.36771,0.11759 5.14405,-0.10988 5.81502,-0.35212 10.73541,-0.7053 3.13116,0.0474 2.68386,0.25286 2.46019,0.45211 2.4602,0.68778 2.4602,0.92223 2.68385,1.24216 3.35482,1.81421 4.47309,2.50069 6.03867,0.10178 7.60425,0.37158 12.52465,0.61642 5.59136,0.0807 7.60426,-2.57328 7.60425,-2.50758 4.02578,-1.09764 3.35482,-0.70052 3.13116,-0.43775 3.13116,-0.21467 3.35482,0.007 3.57847,0.24021 4.24943,0.51999 5.59136,0.92718 4.9204,0.92693 3.57847,-1.72014 3.57847,-1.97072 3.57848,-2.22002 3.80212,-2.63004 3.80213,-2.90715 3.80212,-3.18101 4.02578,-3.66151 4.02578,-3.95613 4.24944,-4.48383 4.47309,-5.04071 4.9204,-5.88258 6.26232,-7.8572 7.15694,-8.93412 2.68386,-3.01558 2.01289,-1.95958 1.56558,-1.24975 1.34192,-0.81716 1.11828,-0.46548 1.11827,-0.24571 0.44731,-0.0335 v 0"
       clip-path="url(#pd809ca9499)"
       style="fill:none;stroke:#ffffff;stroke-width:1.5;stroke-linecap:square;stroke-opacity:1;stroke-dasharray:none"
       id="path60" />
    <path
       d="m 151.69766,313.48765 4.47309,-0.0967 4.47308,-0.30979 4.69675,-0.55146 4.69674,-0.77642 4.9204,-1.03994 5.36771,-1.3666 6.93329,-2.01559 8.72252,-2.51611 3.80213,-0.85959 3.13116,-0.48749 2.90751,-0.22237 2.46019,0.0261 1.78924,0.2626 1.78924,0.47713 2.01289,0.75575 2.4602,1.16832 3.13116,1.74804 5.14405,3.17049 8.27522,5.08629 4.92039,2.74844 4.24944,2.1304 4.02578,1.7825 4.02578,1.5363 3.80212,1.2145 3.80213,0.97778 3.57847,0.6997 3.57847,0.48285 3.57847,0.26421 6.26233,0.35748 2.4602,0.52631 2.90751,0.86952 4.24943,1.5337 6.26233,2.24434 3.57847,1.02806 2.9075,0.61715 2.90751,0.38634 2.68386,0.13478 0.67096,0.0716 4.47309,1.2776 4.02578,0.92944 4.02578,0.70506 4.02578,0.47036 3.80213,0.22301 8.05156,0.12651 3.13116,-0.2887 4.47309,-0.66548 3.80212,-0.49801 2.4602,-0.0959 2.4602,0.14224 3.35482,0.45723 5.59136,0.77844 3.13116,0.20112 2.90751,-0.0249 2.4602,-0.0101 2.01289,0.16511 1.78923,-0.0684 1.78924,-0.29211 1.78924,-0.52907 1.78923,-0.7696 1.78924,-1.0026 2.01289,-1.38489 2.23654,-1.81664 2.68386,-2.49055 3.35481,-3.44782 9.61714,-10.13812 2.0129,-1.70562 1.56558,-1.06926 1.34192,-0.68097 1.34193,-0.4217 1.11827,-0.13227 1.11827,0.0646 1.11828,0.26559 1.34192,0.56744 1.34193,0.80301 1.78924,1.36064 2.23654,2.02571 3.35482,3.3943 6.93329,7.06804 2.9075,2.62721 2.4602,1.94534 2.23655,1.49291 2.01289,1.08434 2.01289,0.81591 1.78923,0.4908 1.78924,0.27078 1.78923,0.0594 2.01289,-0.16754 2.01289,-0.39 2.23655,-0.65988 2.4602,-0.95718 0.67096,-0.17525 2.68385,-0.12148 2.68386,-0.3355 2.90751,-0.58787 3.13116,-0.86003 3.80212,-1.28246 9.8408,-3.46412 2.68385,-0.62258 2.23655,-0.29843 2.23654,-0.0677 2.23655,0.14938 2.23654,0.35837 2.4602,0.6109 2.90751,0.95378 4.02578,1.58195 11.18272,4.53524 4.02578,1.3256 3.57847,0.95102 3.35482,0.67116 3.35482,0.441 3.13116,0.19374 3.13116,-0.0228 3.13116,-0.24224 1.56559,-0.0917 2.01289,0.50588 2.01289,0.29463 2.01289,0.0871 2.23654,-0.13624 2.23655,-0.36574 2.4602,-0.64537 2.46019,-0.87576 2.68386,-1.1905 2.90751,-1.53507 3.13116,-1.9035 3.57847,-2.44993 4.02578,-3.04971 4.69674,-3.86612 6.26233,-5.47734 8.05156,-7.0189 3.57847,-2.82722 2.90751,-2.01562 2.4602,-1.42786 2.01289,-0.93086 2.01289,-0.68124 1.78923,-0.37358 1.78924,-0.14158 v 0"
       clip-path="url(#pd809ca9499)"
       style="fill:none;stroke:#ffffff;stroke-width:1.5;stroke-linecap:square;stroke-opacity:1;stroke-dasharray:none"
       id="path61" />
    <path
       d="m 151.69766,313.48765 4.47309,-0.0967 4.47308,-0.30979 4.69675,-0.55146 4.69674,-0.77642 4.9204,-1.03994 5.36771,-1.3666 6.93329,-2.01559 8.72252,-2.51611 3.80213,-0.85959 3.13116,-0.48749 2.90751,-0.22237 2.46019,0.0261 1.78924,0.2626 1.78924,0.47713 2.01289,0.75575 2.4602,1.16832 3.13116,1.74804 5.14405,3.17049 8.27522,5.08629 4.92039,2.74844 4.24944,2.1304 4.02578,1.7825 4.02578,1.5363 3.80212,1.2145 3.80213,0.97778 3.57847,0.6997 3.57847,0.48285 3.57847,0.26421 6.26233,0.35642 2.4602,0.52453 2.90751,0.86644 4.47308,1.61114 6.03868,2.14849 3.35481,0.96408 3.13116,0.6654 2.90751,0.3788 2.68386,0.12805 0.67096,-0.0723 2.23655,-0.86392 2.23654,-1.09659 2.68385,-1.57546 3.57847,-2.38919 4.69675,-3.11597 2.23654,-1.19658 1.78924,-0.69361 1.56558,-0.35796 1.78924,-0.13049 1.78923,0.0268 1.78924,0.263 2.01289,0.5311 2.68385,0.9743 6.70963,2.57805 2.01289,0.46898 1.78924,0.18255 1.78924,-0.0661 1.78923,-0.30411 2.01289,-0.57287 2.90751,-1.0931 5.14405,-1.97356 2.23655,-0.58974 1.78923,-0.25359 1.78924,-0.0186 0.67096,-0.0108 4.02578,-0.86465 4.24944,-1.13925 4.92039,-1.56119 6.70964,-2.38918 7.15694,-2.49315 3.57847,-1.02101 3.13116,-0.66158 2.68386,-0.34401 2.4602,-0.109 2.46019,0.10299 2.4602,0.30898 2.68386,0.56922 2.68385,0.80504 2.68385,1.0292 2.90751,1.34653 3.35482,1.81121 4.02578,2.45268 5.81502,3.84584 8.05156,5.2952 4.02578,2.37158 3.13116,1.60677 0.89462,0.38788 2.68385,-0.0966 2.68385,-0.31117 2.90751,-0.56338 3.13116,-0.83716 3.80213,-1.26186 10.2881,-3.59063 2.4602,-0.55948 2.23655,-0.29738 2.23654,-0.0676 2.4602,0.1652 2.68386,0.41505 3.57847,0.8005 7.15694,1.65283 2.90751,0.41781 2.68385,0.15554 2.4602,-0.0847 2.4602,-0.31652 2.4602,-0.54586 2.68385,-0.83432 3.13116,-1.22472 9.39349,-3.89491 2.01289,-0.4852 1.78924,-0.19998 1.56558,0.0356 0.89462,-0.002 4.47309,-1.54399 4.92039,-1.94283 5.81502,-2.55495 10.06445,-4.73401 6.70963,-3.02322 4.69675,-1.87603 4.02578,-1.38023 3.80212,-1.08206 3.80213,-0.86146 4.02578,-0.6851 4.24944,-0.50031 4.69674,-0.33164 5.14405,-0.14455 0.89462,-0.004 v 0"
       clip-path="url(#pd809ca9499)"
       style="fill:none;stroke:#ffffff;stroke-width:1.5;stroke-linecap:square;stroke-opacity:1;stroke-dasharray:none"
       id="path62" />
    <path
       d="m 151.69766,286.20703 4.24943,-0.1017 4.24944,-0.32333 4.24943,-0.54254 4.47309,-0.80228 4.47309,-1.02871 4.69674,-1.30193 5.59137,-1.78785 11.40637,-3.73839 2.68386,-0.61325 2.23654,-0.29365 2.01289,-0.0397 2.68385,0.20672 2.23655,0.1214 2.01289,0.0892 2.01289,0.30743 2.23654,0.577 2.4602,0.87658 2.90751,1.28424 4.02578,2.0549 13.41927,7.06303 4.24943,1.88338 3.80213,1.44798 3.57847,1.13324 3.57847,0.89304 3.35482,0.60652 3.35481,0.37304 3.13117,0.12959 3.13116,-0.0882 3.13116,-0.31254 3.13116,-0.54287 1.11828,-0.12943 1.56558,-0.18619 1.56558,-0.41862 1.56558,-0.64131 1.78924,-0.98768 1.78923,-1.2364 2.01289,-1.65647 2.23655,-2.13 2.4602,-2.64553 2.9075,-3.47037 3.35482,-4.37905 4.47309,-6.25319 3.13116,-4.26057 1.11827,-1.21012 0.67097,-0.50709 0.67096,-0.24743 0.44731,0.0751 0.67096,0.46411 0.89462,0.997 1.34193,1.95978 3.13116,5.18231 3.57847,5.75988 2.4602,3.57068 2.01289,2.5783 1.78924,1.96116 1.56558,1.40654 1.34193,0.9382 1.34192,0.66151 1.11827,0.32325 1.11828,0.10656 1.34192,-0.26105 1.34193,-0.50296 1.34193,-0.73433 1.56558,-1.12838 1.78923,-1.61098 2.01289,-2.16568 2.23655,-2.76961 2.68385,-3.71633 4.47309,-6.40525 0.44731,-0.34863 0.44731,-0.0466 0.44731,0.2797 0.67096,0.77326 1.78924,2.59703 3.80212,5.52016 2.4602,3.19861 2.23655,2.53889 1.78923,1.719 1.56558,1.23672 1.56558,0.95467 1.34193,0.5736 1.34193,0.33476 0.67096,0.006 3.35482,-0.81462 3.57847,-1.09707 3.80212,-1.39745 4.69675,-1.97333 6.26232,-2.62801 2.01289,-0.61317 1.56558,-0.26162 1.34193,0.007 1.11827,0.2124 1.11828,0.41107 1.34192,0.71917 2.4602,1.64796 2.23655,1.4127 1.56558,0.7233 1.34192,0.36194 1.11828,0.0917 1.11827,-0.0991 1.34192,-0.37013 1.34193,-0.61082 1.78924,-1.09812 2.68385,-1.97154 4.02578,-2.94056 2.90751,-1.84138 4.02578,-2.25602 3.80213,-1.92888 3.35481,-0.69378 2.68386,-0.80059 2.9075,-1.10786 3.13117,-1.45009 3.35481,-1.80894 6.70964,-3.86489 0.67096,0.17379 0.67096,0.45106 0.89462,0.89749 1.56558,1.9863 4.69675,6.60425 4.02578,5.41563 3.13116,3.85192 2.68385,2.97722 2.4602,2.41108 2.23655,1.88006 2.01289,1.39827 1.78923,0.97891 1.56558,0.63296 1.56558,0.40994 1.56559,0.17712 2.4602,-0.0324 1.56558,-0.28124 1.56558,-0.49412 1.78923,-0.81243 1.78924,-1.05782 2.01289,-1.45625 2.23654,-1.91169 2.4602,-2.41359 2.68386,-2.95086 3.13116,-3.79597 3.57847,-4.7212 4.24943,-6.0086 0.67097,-0.8567 0.44731,0.13819 0.67096,0.50985 0.89462,1.06001 1.56558,2.30006 5.59136,8.48432 2.4602,3.25124 2.01289,2.30436 1.78924,1.71779 1.56558,1.20541 1.34192,0.78656 1.34193,0.54156 1.11827,0.2454 4.24944,-1.64026 4.47309,-1.97348 5.14405,-2.52551 8.49887,-4.4818 5.3677,-2.69857 3.35482,-1.45665 2.90751,-1.02896 2.68385,-0.70943 2.4602,-0.42989 2.68386,-0.23575 2.9075,-0.018 3.35482,0.2102 1.11827,0.1879 3.35482,1.12011 3.35482,0.89717 3.35481,0.67407 3.35482,0.4509 3.35482,0.22755 1.56558,0.0297 v 0"
       clip-path="url(#pd809ca9499)"
       style="fill:none;stroke:#ffffff;stroke-width:1.5;stroke-linecap:square;stroke-opacity:1;stroke-dasharray:none"
       id="path63" />
    <path
       d="m 151.69766,271.34001 3.80212,-0.10527 4.02578,-0.3363 4.47309,-0.60174 12.52465,-1.85792 2.68386,-0.0633 2.46019,0.17801 2.23655,0.38367 2.4602,0.66004 2.90751,1.0399 4.92039,2.06497 4.02578,1.58413 2.68386,0.83424 2.4602,0.535 2.23654,0.2608 2.01289,0.0354 1.56558,-0.1952 1.56558,-0.43597 1.56558,-0.66021 1.78924,-1.00097 2.01289,-1.3973 2.23655,-1.83245 2.68385,-2.51018 3.13116,-3.26146 2.68385,-2.95775 1.34193,1.01581 2.01289,1.83748 3.57847,3.65454 6.70964,6.86093 3.80212,3.56411 3.57847,3.05604 3.35482,2.57806 3.35482,2.28984 3.13116,1.87381 3.13116,1.61975 3.13116,1.36793 3.13117,1.12002 3.13116,0.87666 1.11827,0.17744 1.56558,-0.15238 1.56558,-0.3857 1.56559,-0.60992 1.78923,-0.95435 1.78924,-1.20615 2.01289,-1.62623 2.23654,-2.1008 2.4602,-2.61812 2.90751,-3.44352 3.35482,-4.35472 4.24943,-5.9181 3.57847,-4.88745 1.11827,-1.24061 0.89462,-0.67091 0.89462,-0.27695 1.34193,-0.37969 1.56558,-0.20298 2.01289,0.003 2.90751,0.26113 9.39348,0.96829 4.24944,0.16049 0.89462,0.005 4.69674,-2.75177 4.69674,-2.72371 1.34193,-0.53394 0.89462,-0.12951 0.67096,0.11345 0.67096,0.35213 0.67097,0.59532 0.89462,1.08646 1.56558,2.31319 2.4602,3.66102 0.67096,0.61098 0.44731,0.049 0.44731,-0.28425 0.67096,-0.79182 1.56558,-2.3428 2.23655,-3.29041 0.89461,-1.00454 0.67097,-0.50596 0.67096,-0.25448 0.67096,-0.0293 0.89462,0.2068 1.34193,0.59533 2.4602,1.41367 6.93329,4.10032 4.92039,-5.66792 3.57848,-4.03982 1.34192,-1.25627 0.89462,-0.60773 0.67096,-0.25416 0.67097,-0.0251 0.67096,0.22642 0.67096,0.45723 0.89462,0.88168 1.34193,1.67042 2.68385,3.80311 4.02578,5.65769 2.01289,2.48983 1.56558,1.62826 1.34193,1.09115 1.11827,0.65388 1.11828,0.41927 1.34192,0.23867 1.56558,0.0261 2.90751,-0.24889 3.35482,-0.21669 2.4602,0.0625 2.9075,0.30646 4.47309,0.74788 4.47309,0.6885 3.13116,0.25092 2.68386,-0.003 2.68385,-0.23445 0.67097,-0.19991 3.80212,-2.09853 5.14405,-3.06399 7.3806,-4.46923 1.34193,-0.56054 1.11827,-0.25164 1.11827,0.012 1.11827,0.27095 2.01289,0.79077 0.89462,0.78453 1.34193,1.60133 2.4602,3.37824 5.81501,8.05864 3.35482,4.24791 2.90751,3.32626 2.4602,2.49899 2.23654,1.97365 2.01289,1.49485 1.78924,1.07493 1.78923,0.81016 1.56558,0.47449 1.56559,0.24418 1.34192,-0.007 1.56559,-0.28148 1.56558,-0.49364 1.78923,-0.81031 1.78924,-1.0541 2.01289,-1.44992 2.23654,-1.90236 2.4602,-2.4007 2.68385,-2.93343 3.13117,-3.76685 3.80212,-4.94599 4.02578,-5.21767 1.11827,-1.08443 0.67097,-0.35512 0.44731,-0.16065 5.81501,-8.30137 1.34193,-1.5564 0.89462,-0.77431 0.67096,-0.37466 0.67097,-0.16804 0.67096,0.0344 0.89462,0.30508 1.11827,0.66256 1.78923,1.39113 3.80213,3.35026 3.13116,2.69541 6.26233,-11.89751 1.56558,-2.45633 1.11827,-1.32764 0.89462,-0.6911 0.67096,-0.27695 0.67097,-0.0808 0.89461,0.1476 1.11828,0.48204 1.34192,0.84664 2.23655,1.72598 1.34192,1.22756 4.02578,3.76645 4.02578,3.45447 3.80213,2.97413 3.80212,2.69232 3.80213,2.40938 3.57847,2.00827 3.57847,1.75607 3.57847,1.50336 0.89462,0.25846 2.01289,0.28959 3.57847,1.16966 3.57848,0.92791 3.35481,0.63004 3.13116,0.35374 2.68386,0.10623 v 0"
       clip-path="url(#pd809ca9499)"
       style="fill:none;stroke:#ffffff;stroke-width:1.5;stroke-linecap:square;stroke-opacity:1;stroke-dasharray:none"
       id="path64" />
    <path
       d="m 151.69766,271.34001 3.80212,-0.10527 4.02578,-0.3363 4.47309,-0.60174 12.52465,-1.85792 2.68386,-0.0633 2.46019,0.17801 2.23655,0.38367 2.4602,0.66004 2.90751,1.0399 4.92039,2.06497 4.02578,1.58413 2.68386,0.83424 2.4602,0.535 2.23654,0.25716 2.01289,0.039 1.56558,-0.1952 1.56558,-0.43597 1.56558,-0.66021 1.78924,-1.00097 2.01289,-1.3973 2.23655,-1.83245 2.68385,-2.51018 3.13116,-3.26146 3.57847,-4.05945 4.24944,-5.16317 5.14405,-6.61399 6.26232,-8.4342 7.60426,-10.62997 16.55043,-23.35126 1.34192,-1.46217 0.89462,-0.7323 0.67096,-0.35034 0.67097,-0.1257 0.67096,0.13462 0.67096,0.3917 0.89462,0.85557 1.11827,1.46055 1.56559,2.48885 2.46019,4.43111 4.69675,9.05119 8.05156,15.47005 4.47309,8.11954 2.90751,4.88875 1.78923,2.64901 1.11827,1.31474 0.67097,0.54213 0.67096,0.26186 1.34193,0.0556 0.67096,-0.32901 0.89462,-0.70059 1.34193,-1.37134 5.81501,-6.69752 3.57847,-4.4535 4.9204,-6.50248 3.13116,-4.07137 0.67097,-0.62614 0.44731,-0.1489 0.44731,0.3604 0.67096,0.93553 1.34192,2.32301 3.35482,6.4196 3.57847,6.69768 1.56558,2.5328 0.89462,1.14217 0.67097,0.60992 0.67096,0.35326 0.67096,0.11305 0.89462,-0.11727 1.34193,-0.45868 2.01289,-0.69613 1.11827,-0.13527 1.11827,0.14167 1.34193,0.45779 2.68385,1.03261 0.89462,0.0633 0.67096,-0.1866 0.67097,-0.44417 0.89461,-0.97502 1.11828,-1.6461 1.78923,-3.1201 3.35482,-6.41141 3.80212,-7.18816 1.11828,-1.68745 0.44731,-0.37905 1.11827,1.80408 4.69674,7.64748 3.80213,5.77894 3.57847,5.06131 3.35482,4.37857 3.13116,3.73133 2.90751,3.12116 2.68385,2.5513 2.4602,2.02741 2.23654,1.55616 2.01289,1.14476 2.01289,0.88322 1.78924,0.55227 1.78924,0.32365 1.78923,0.0891 1.78924,-0.14873 1.78923,-0.39632 1.56558,-0.56954 1.56559,-0.80253 1.56558,-1.06188 1.56558,-1.34182 1.56558,-1.62867 1.78923,-2.19779 2.01289,-2.85233 2.4602,-3.92321 3.35482,-5.84243 2.4602,-4.1931 0.89462,-1.20817 0.67096,-0.59428 0.44731,-0.18887 0.44731,-0.0194 0.67096,0.22739 0.89462,0.60036 1.56558,1.39608 7.82791,7.3625 2.01289,1.49518 1.34192,0.74803 1.11828,0.37273 0.89461,0.0815 0.89462,-0.12473 1.11827,-0.40808 0.89462,-0.33501 0.67096,-0.28984 0.67097,-0.56337 0.89462,-1.04007 1.34192,-1.91225 2.23655,-3.62964 3.35481,-5.90983 4.69675,-8.75485 7.60425,-14.7367 4.24943,-8.02774 2.01289,-3.41822 1.34193,-1.91956 0.89462,-0.99262 0.89462,-0.64715 0.67096,-0.1995 0.67096,0.0681 0.67097,0.38278 0.67096,0.70473 0.89462,1.32025 1.34192,2.45236 2.23655,4.64683 4.69674,10.43193 7.3806,16.30916 4.47309,9.35578 3.13116,6.07324 1.78924,3.03487 0.89461,1.19147 0.67097,0.59168 0.44731,0.18434 0.44731,-0.006 0.44731,-0.18498 0.67096,-0.53751 0.89462,-1.02336 1.56558,-2.19787 2.68385,-4.24792 3.57847,-5.73718 0.89462,-0.9382 1.34193,-1.77845 2.01289,-3.10802 3.57847,-6.02336 1.78923,-2.89045 0.67097,-0.76328 0.22365,-0.10421 4.47309,5.67214 4.47309,5.31214 4.24944,4.70441 4.02577,4.14387 2.0129,1.71479 6.93328,5.74642 4.24944,3.22237 4.02578,2.78088 4.02578,2.50069 3.80212,2.0991 3.80213,1.84276 3.80213,1.58625 1.34192,0.44433 4.9204,0.73814 3.80213,0.78014 3.57847,0.98565 2.4602,0.58909 1.56558,0.14743 v 0"
       clip-path="url(#pd809ca9499)"
       style="fill:none;stroke:#ffffff;stroke-width:1.5;stroke-linecap:square;stroke-opacity:1;stroke-dasharray:none"
       id="path65" />
    <path
       d="m 151.69766,232.32374 2.9075,-0.10575 3.13117,-0.34725 3.13116,-0.58617 3.13116,-0.81924 2.90751,-0.89887 3.13116,3.8722 2.68386,2.9777 2.46019,2.3947 2.23655,1.85062 2.01289,1.36323 1.78924,0.94972 1.78923,0.69208 1.34193,0.42324 7.60425,11.63144 3.57847,5.12602 2.4602,3.17623 1.78924,1.99976 1.56558,1.44279 1.34192,0.95596 1.34193,0.67578 1.34193,0.40557 1.34192,0.16089 1.56558,-0.0735 1.34193,-0.29592 1.56558,-0.60628 1.56558,-0.85354 2.01289,-1.3861 2.90751,-2.34142 2.68386,-2.10689 1.34192,-0.81413 1.11827,-0.43378 0.89462,-0.13552 0.89462,0.073 0.89462,0.27557 1.34192,0.67553 4.02578,-4.81713 4.9204,-6.24581 6.03867,-8.05094 7.3806,-10.23892 9.61714,-13.75722 6.93329,-9.83214 2.23655,-2.81567 1.34192,-1.33809 0.89462,-0.58957 0.67096,-0.20923 0.67097,0.0405 0.67096,0.27086 0.67096,0.48739 0.89462,0.9391 1.11827,1.52137 1.56558,2.53264 2.4602,4.45707 4.9204,9.48326 7.60425,14.56761 4.47309,8.09749 2.90751,4.86263 1.78924,2.61244 1.11827,1.26762 0.67096,0.49801 0.67097,0.20226 1.34192,-0.62331 1.34193,-0.8842 1.56558,-1.30111 1.78924,-1.74617 2.23654,-2.90796 4.24943,-5.88817 6.48599,-9.03059 1.34192,-1.53596 0.89462,-0.77431 0.67096,-0.36583 0.67097,-0.12481 1.11827,0.3724 1.11827,0.73368 1.56558,1.35188 3.13116,3.07461 5.36771,5.2424 2.68385,2.32536 1.78924,1.26552 1.11827,0.55891 0.89462,0.24256 0.89462,0.0153 0.89462,-0.21434 1.11827,-0.53013 1.34192,-0.89303 2.0129,-1.63337 2.9075,-2.67188 5.81502,-5.73791 2.4602,-2.26332 1.34192,-0.97908 0.89462,-0.41205 2.01289,-0.44457 0.44731,0.5131 1.56558,2.29316 6.26233,9.62129 1.11827,1.20745 0.67096,0.48431 0.67097,0.24126 0.67096,-0.0246 0.67096,-0.27054 0.89462,-0.65721 1.11827,-1.13373 1.78924,-2.20233 2.68385,-3.71731 6.48598,-9.18718 0.67097,-0.53313 0.4473,-0.12594 0.44731,0.071 0.67097,0.36064 1.34192,1.06358 2.68386,2.12424 1.78923,1.11216 1.56558,0.70611 1.34193,0.38626 1.34193,0.17379 1.34192,-0.0384 1.34193,-0.25221 1.34193,-0.46201 1.56558,-0.78866 1.56558,-1.0309 2.01289,-1.61252 3.57847,-2.98103 0.44731,-0.20518 0.22365,0.075 1.11828,1.46582 4.69674,6.20721 2.90751,3.49445 1.56558,1.58746 0.89462,0.65834 0.67096,0.24329 0.44731,-0.0225 0.44731,-0.20145 0.89462,-0.7147 0.67096,0.67967 5.81502,6.38959 4.02578,4.09441 3.35481,3.12983 2.68386,2.22627 1.78923,1.23177 0.22366,0.0996 0.67096,-0.23607 0.67096,-0.52032 0.89462,-1.00154 1.34193,-1.87974 2.23654,-3.60344 3.35482,-5.88931 4.69674,-8.73483 7.60425,-14.70701 4.47309,-8.40809 2.01289,-3.35415 1.34193,-1.84008 0.89462,-0.91882 0.89462,-0.57822 0.67096,-0.17355 0.67096,0.0535 0.89462,0.34466 1.11827,0.70716 1.34193,1.11751 1.56558,1.58057 2.01289,2.35666 2.90751,3.80181 5.14405,7.17298 7.82791,10.83028 4.69674,6.11014 3.57847,4.31344 2.4602,2.65972 1.56558,1.43038 1.11828,0.7765 0.89461,0.36997 0.67097,0.0681 0.67096,-0.14825 0.67096,-0.37109 0.44731,-0.67238 7.3806,-12.52771 1.34193,-1.82848 0.89461,-0.92636 0.67097,-0.47726 0.22365,-0.0791 4.02578,4.21029 3.80213,3.65453 3.57847,3.12628 3.35482,2.63028 3.13116,2.17071 2.90751,1.75071 2.68385,1.37337 2.68385,1.12513 2.4602,0.80059 2.4602,0.56849 2.4602,0.32706 2.23655,0.0817 2.23654,-0.12643 2.23654,-0.33428 2.4602,-0.6023 2.01289,-0.49388 1.56559,0.35975 1.34192,0.54772 1.11827,0.67619 1.34193,1.10112 1.34193,1.39332 1.78923,2.1892 6.70964,8.57758 1.56558,1.53029 1.34193,1.04299 1.34192,0.7726 1.34193,0.50669 1.34192,0.25984 0.67097,0.0429 v 0"
       clip-path="url(#pd809ca9499)"
       style="fill:none;stroke:#ffffff;stroke-width:1.5;stroke-linecap:square;stroke-opacity:1;stroke-dasharray:none"
       id="path66" />
    <path
       d="m 151.69766,210.06088 0.67096,0.18004 0.67096,0.42008 0.89462,0.84421 1.34193,1.63572 2.23654,3.14411 7.60425,10.90837 3.35482,4.35756 2.90751,3.42017 2.4602,2.57684 2.23654,2.04323 2.01289,1.55827 1.78924,1.13664 1.78923,0.88582 1.78924,0.62728 1.78924,0.37232 1.78923,0.13308 1.78924,-0.0796 2.01289,-0.30095 2.4602,-0.5933 4.02578,-1.2407 4.02578,-1.17046 2.4602,-0.49461 2.23654,-0.22504 2.01289,0.0257 1.34193,0.24938 1.56558,0.5461 1.56558,0.79126 1.78924,1.14857 2.68385,2.0309 3.13116,2.34166 1.34193,0.75055 1.11827,0.37726 0.89462,0.0835 0.89462,-0.13778 0.89461,-0.36015 1.11828,-0.73044 1.34192,-1.20217 1.56558,-1.7182 2.23655,-2.82475 3.13116,-4.37045 4.47309,-6.67246 0.89462,-1.16998 3.57847,-2.48245 3.80212,-2.91785 3.80213,-3.20631 4.02578,-3.70936 4.02578,-4.03293 4.02578,-4.35569 4.02578,-4.67765 3.80213,-4.56087 1.78923,0.0925 2.23655,0.29519 2.90751,0.12165 5.81501,-0.0227 19.23429,-0.27978 1.78923,1.83197 2.4602,2.90001 3.35482,4.33137 4.92039,6.7602 8.94618,12.39714 0.67097,0.63329 0.44731,0.15019 0.44731,0.04 0.67096,-0.23307 5.14405,-2.51132 3.35482,-1.23526 3.13116,-0.91436 2.68385,-0.5543 2.4602,-0.28489 2.4602,-0.0503 2.4602,0.18782 2.4602,0.4114 2.68385,0.66986 3.13117,1.01541 3.35481,1.32139 2.68386,1.29462 1.34192,0.60936 0.44731,0.0212 0.22366,-0.0518 0.89461,0.85435 0.44731,0.52599 0.44731,-0.0898 3.80213,-1.4522 4.02578,-1.77163 4.02578,-2.00925 4.24943,-2.37264 4.47309,-2.75485 0.44731,-0.27978 3.13116,3.31563 0.67097,0.46468 0.44731,0.13778 0.4473,-0.0639 0.44731,-0.27094 0.67097,-0.68081 1.34192,-1.7825 5.14406,-7.1665 1.34192,-1.4719 1.11828,-0.90342 0.89461,-0.42332 0.67097,-0.10624 0.67096,0.10381 0.89462,0.40548 0.89461,0.66904 1.11828,1.10454 1.78923,2.14014 2.90751,3.90966 4.47309,6.17453 0.22365,0.13737 1.11828,-0.0629 0.67096,0.21937 0.89462,0.5667 1.34192,1.20672 2.0129,2.16519 5.14405,5.98071 2.23654,2.55186 0.22366,0.0829 0.44731,-0.57278 1.11827,-1.94178 2.01289,-4.04233 3.57847,-7.79167 8.27521,-18.26562 1.78924,-3.28684 1.11827,-1.67059 0.22366,-0.2222 12.30099,0.15327 13.41927,0.13462 2.90751,-0.1776 3.35481,-0.31709 1.11828,0.36737 0.89462,0.03 1.11827,-0.0819 2.4602,1.51731 3.57847,2.12068 5.14405,2.74755 7.60425,4.08888 4.9204,2.91056 4.9204,3.18141 5.36771,3.73288 11.85368,8.34353 0.89462,0.3458 0.44731,-0.0287 0.22365,-0.0644 2.90751,3.26827 2.01289,1.9661 1.34193,1.06358 1.11827,0.62915 0.89462,0.24662 0.67096,-0.0176 0.67096,-0.22618 0.67097,-0.45155 0.89462,-0.77058 3.57847,3.45861 3.35481,2.94534 3.13117,2.46193 2.9075,2.00982 2.68386,1.59176 2.4602,1.21337 2.46019,0.95856 2.23655,0.64082 2.23654,0.42592 2.68386,0.26746 5.59136,0.26737 2.68385,-1.09294 2.90751,-1.43386 3.80213,-2.14922 6.26232,-3.57279 2.23655,-1.01939 2.01289,-0.6761 1.78923,-0.35585 1.34193,-0.0959 v 0"
       clip-path="url(#pd809ca9499)"
       style="fill:none;stroke:#ffffff;stroke-width:1.5;stroke-linecap:square;stroke-opacity:1;stroke-dasharray:none"
       id="path67" />
    <path
       d="m 151.69766,210.06088 0.67096,0.18004 0.67096,0.42008 0.89462,0.84421 1.34193,1.63572 2.23654,3.14411 7.60425,10.90837 1.78924,2.31061 3.35482,-1.33283 3.13116,-1.35958 9.8408,15.5372 1.11827,1.66775 1.78923,0.24994 1.78924,0.0229 2.01289,-0.20712 2.23654,-0.45706 3.13117,-0.89474 6.26232,-1.86489 2.4602,-0.47353 2.23654,-0.20144 6.26233,-0.30143 3.35482,-0.47328 3.35481,-0.69857 3.35482,-0.92393 3.35482,-1.14922 3.35481,-1.37451 3.57848,-1.7143 3.57847,-1.9704 3.35481,-2.08256 8.94618,-13.92289 13.64292,-21.11916 2.23655,-3.41821 0.22365,0.0462 4.47309,6.04818 1.78924,2.15555 1.34192,0.13786 1.11828,0.0714 4.47309,0.0592 10.73541,-0.14759 13.86658,-0.14354 0.44731,8.1e-4 1.11827,-0.84178 0.89462,-0.42333 0.67096,-0.11759 0.67096,0.0819 0.67097,0.27897 0.89461,0.63904 1.11828,1.1167 1.56558,1.93172 2.23654,3.15222 4.02578,6.12117 4.24944,6.37581 1.78923,2.32503 1.11827,1.12157 0.67097,0.44927 0.67096,0.21572 1.56558,-8.1e-4 0.67097,-0.33817 0.89461,-0.71284 1.11828,-1.18644 1.56558,-1.99984 2.4602,-3.55365 3.80212,-5.93951 6.48598,-10.20194 0.67096,-0.74447 0.44731,-0.27978 0.44731,-0.0122 0.44731,0.26032 0.67097,0.72663 1.34192,1.93009 4.02578,6.43177 4.9204,7.69525 2.68385,3.81153 1.56558,1.90415 1.11828,1.0721 0.89461,0.5774 0.67097,0.21085 0.67096,-0.0178 0.22366,-0.0462 0.89461,0.38926 0.89462,0.11921 1.11827,-0.11191 1.56558,-0.43468 2.23655,-0.89611 3.80213,-1.80846 4.02578,-1.87495 1.78923,-0.60011 1.11827,-0.18247 0.89462,0.0268 0.89462,0.22626 0.89462,0.4509 1.11827,0.85557 1.56558,1.56111 6.26233,-4.19513 4.24943,-2.76296 2.01289,-1.08182 1.56558,-0.60579 1.34193,-0.26925 1.34192,-0.0195 1.11828,0.17841 1.34192,0.46955 1.34193,0.72014 1.56558,1.10291 2.01289,1.71519 4.02578,3.54392 0.89462,0.48415 0.67096,0.14678 0.67097,-0.0924 0.67096,-0.33655 0.89462,-0.75825 1.11827,-1.27889 1.56558,-2.14014 2.4602,-3.77748 5.14405,-8.04801 1.34193,-1.65518 1.11827,-1.07453 1.11827,-0.8134 1.34193,-0.72014 1.78924,-0.68121 2.01289,-0.5255 2.01289,-0.3179 1.78923,-0.0916 1.56558,0.11921 1.34193,0.31384 1.11827,0.47442 1.11828,0.73636 1.11827,1.05912 0.44731,0.44846 10.06445,0.0722 19.01063,0.17273 2.23654,-0.18977 1.11827,-0.18976 0.67097,-0.0965 0.67096,0.0973 0.89462,0.35682 0.22365,0.11516 0.67097,-0.13462 3.57847,-0.91152 1.78923,-0.20112 1.78924,0.0219 2.01289,0.26032 2.23654,0.51902 2.68386,0.86854 2.68385,1.09724 2.68385,1.3235 2.68386,1.55786 2.68385,1.79548 3.13116,2.37369 3.80213,3.19926 10.51176,9.10876 1.56558,0.99181 1.11827,0.45171 0.89462,0.0965 0.67096,-0.14354 0.44731,-0.17354 4.24944,5.09513 4.02578,4.49818 2.68385,2.80488 0.22366,0.0554 1.11827,-1.63174 1.34192,-2.42284 2.01289,-4.18653 2.90751,-6.63726 7.60425,-17.70418 0.67097,-1.1313 1.34192,1.16293 1.34193,1.38513 1.11827,1.48731 1.11827,1.89441 1.56559,3.14817 9.61714,20.2378 2.01289,3.55859 1.56558,2.39924 1.34193,1.71219 1.34192,1.33615 1.11827,0.81551 1.11828,0.56751 1.34192,0.41335 1.56559,0.21693 2.01289,0.0255 3.57847,-0.24021 5.59136,-0.35658 2.01289,-0.0354 v 0"
       clip-path="url(#pd809ca9499)"
       style="fill:none;stroke:#ffffff;stroke-width:1.5;stroke-linecap:square;stroke-opacity:1;stroke-dasharray:none"
       id="path68" />
    <path
       d="m 151.69766,200.04789 0.67096,-0.19057 0.67096,-0.45333 0.89462,-0.92126 0.89462,-1.17184 0.44731,0.48252 1.56558,2.16933 2.4602,3.80992 5.81501,9.5483 8.05156,13.1305 0.22366,0.2857 4.9204,-2.48293 3.57847,-1.7014 1.78924,-0.60969 1.34192,-0.21977 1.11827,0.0527 1.11828,0.31708 1.11827,0.59112 1.34192,1.01605 1.78924,1.67967 5.36771,5.24427 2.01289,1.61569 1.78923,1.18141 1.78924,0.91218 1.56558,0.5611 1.56558,0.32966 1.56558,0.0942 1.56558,-0.1193 1.56559,-0.35528 1.56558,-0.58382 1.78923,-0.93252 1.78924,-1.19537 2.01289,-1.6302 2.23654,-2.12781 2.4602,-2.67789 2.68385,-3.27127 2.90751,-3.90099 3.13116,-4.56086 3.57848,-5.61188 4.02578,-6.76021 4.24943,-7.57847 4.9204,-9.22716 5.81502,-10.91316 4.47308,7.05783 4.69675,6.98484 2.01289,2.86028 0.22365,-0.0746 0.67097,-1.02344 0.22365,-0.12732 2.01289,2.64942 1.34193,1.43866 0.89462,0.67634 0.67096,0.28465 0.67096,0.0462 0.89462,-0.20193 1.11827,-0.51496 3.57847,-1.79547 2.23655,-0.76961 2.90751,-0.75177 6.26232,-1.31863 6.48598,-1.15886 3.80213,-0.46469 3.35481,-0.19139 1.11828,-0.0113 1.34192,1.01371 0.89462,0.40467 0.67096,0.10218 0.67097,-0.0892 0.89461,-0.39899 0.89462,-0.65526 1.34193,-1.30241 2.01289,-2.34288 3.80212,-4.88931 3.80213,-4.78794 1.34193,-1.44027 0.44731,-0.32925 0.44731,-0.10543 1.56558,0.11029 2.90751,0.2806 1.56558,0.80042 1.78923,1.18077 6.93329,5.10016 0.67096,0.82475 2.01289,3.13681 4.69675,7.38384 0.89461,1.03966 0.44731,0.27816 0.44731,0.01 0.44731,-0.26275 0.67097,-0.73149 1.34192,-1.94389 3.80213,-6.109 2.23654,-3.45714 0.67097,-0.68365 6.26232,-4.59168 2.01289,-1.33485 1.56558,-0.7915 0.22366,-0.073 0.67096,0.66013 0.89462,1.24402 1.34192,2.3818 2.23655,4.56168 6.48598,13.4458 2.68385,4.99717 1.78924,2.9284 1.34192,1.8417 1.11828,1.19049 0.89461,0.66419 0.89462,0.38764 0.89462,0.13056 0.89462,-0.0795 1.11827,-0.31466 1.56558,-0.69986 2.23655,-1.27808 6.48598,-3.86101 1.56558,-0.61633 1.34192,-0.29925 1.34193,-0.0819 9.61714,-0.0397 3.35482,-0.33087 3.57847,-0.57579 3.35482,-0.74528 2.9075,-0.85232 2.01289,-0.78583 1.56559,-0.82637 2.23654,-1.32917 2.4602,-0.67148 9.39349,-2.51967 2.01289,-0.78096 1.34192,-0.72419 1.11828,-0.81908 1.11827,-1.0948 0.44731,-0.45333 3.35481,0.11759 3.57848,0.36899 4.24943,0.6731 7.15694,1.40946 4.69675,1.09156 2.46019,0.77041 2.01289,0.86368 3.80213,1.82711 0.89462,0.0511 1.11827,-0.26438 4.02578,-1.24402 4.9204,-1.25456 2.23654,-0.86773 2.68386,-1.29187 3.35482,-1.87982 4.24943,-2.65429 6.26232,-4.21539 3.57847,-2.31044 1.56559,-0.76799 1.34192,-0.39818 2.01289,-0.30979 3.13117,-0.50199 2.46019,-0.62525 2.4602,-0.85638 2.4602,-1.08102 2.4602,-1.25456 5.36771,6.60207 4.24943,4.87146 4.02578,4.27947 3.80213,3.72963 3.80213,3.42957 4.69674,3.91372 0.89462,0.74446 0.67096,-0.8061 0.67096,-0.44359 0.67097,-0.0827 0.67096,0.18733 0.89462,0.51172 0.67096,0.60822 1.11827,1.28295 1.11828,0.95694 1.34192,1.07372 3.13117,3.47093 3.57847,4.3046 6.70963,8.54433 4.02578,4.91818 2.90751,3.1978 2.23654,2.16025 2.01289,1.66783 1.78924,1.22918 1.78924,0.9648 1.56558,0.61082 1.56558,0.38172 1.56558,0.1459 v 0"
       clip-path="url(#pd809ca9499)"
       style="fill:none;stroke:#ffffff;stroke-width:1.5;stroke-linecap:square;stroke-opacity:1;stroke-dasharray:none"
       id="path69" />
    <path
       d="m 151.69766,200.04789 0.67096,-0.19057 0.67096,-0.45333 0.89462,-0.92126 1.11827,-1.49298 1.78924,-2.83271 2.4602,-4.35407 3.35482,-6.38635 4.69674,-9.45504 0.67096,-1.17996 4.24944,10.43226 3.57847,8.19561 2.90751,6.13577 2.4602,4.68089 1.78923,2.97624 1.56558,2.17258 1.11827,1.21644 1.11828,0.8726 0.89461,0.42981 0.89462,0.19626 0.89462,-0.01 1.11827,-0.24816 1.34193,-0.55227 1.78923,-1.0137 2.90751,-1.97633 4.24944,-2.89028 2.01289,-1.09237 1.56558,-0.61065 1.34193,-0.30898 1.34192,-0.0876 2.68386,-0.11192 2.68385,-0.33087 2.90751,-0.59363 2.90751,-0.8288 2.9075,-1.06156 2.90751,-1.29998 2.90751,-1.54651 2.90751,-1.80277 2.90751,-2.07202 2.9075,-2.35504 2.90751,-2.65348 2.90751,-2.9657 2.90751,-3.29333 2.9075,-3.63474 1.56559,-1.94389 1.34192,-1.09318 0.89462,-0.50361 0.89462,-0.23761 0.67096,0.0332 0.22366,0.1403 0.44731,0.56929 0.22365,-0.36899 0.89462,0.64797 1.11827,1.13616 1.56558,1.97308 2.4602,3.52283 7.15694,10.44523 1.56558,1.89685 1.11828,1.04614 0.89461,0.51497 0.67097,0.1257 0.67096,-0.0916 0.89462,-0.35764 2.23654,-1.30809 2.01289,-1.01614 2.01289,-0.75338 2.68386,-0.75339 4.69674,-1.04939 6.93329,-1.3243 4.24943,-0.5985 3.35482,-0.26194 2.23655,-0.0438 1.78923,-1.83603 2.4602,-2.88865 3.57847,-4.5779 5.14405,-6.82995 2.23655,0.77204 2.01289,0.47603 0.67096,0.0454 0.44731,-0.15165 2.90751,-1.91064 0.89462,-0.22625 2.23654,-0.15977 0.89462,0.3252 0.89462,0.5547 1.11827,0.96424 1.34193,1.46622 1.78923,2.32099 3.35482,4.58033 1.11827,0.7177 1.78924,0.84908 1.78923,0.61796 1.78924,0.38359 1.78923,0.14029 1.56559,-0.0787 1.78923,-0.31871 1.78924,-0.55389 1.78923,-0.77772 1.56558,-0.87827 0.67097,-0.53929 0.89461,-1.20266 2.90751,-4.09781 1.56558,-1.87009 1.34193,-1.27889 1.11827,-0.75095 0.89462,-0.34547 0.89462,-0.0884 1.11827,0.0276 0.67096,-0.28383 0.67097,-0.086 0.89461,0.12814 1.11828,0.43386 1.34192,0.77366 1.78924,1.28863 2.4602,2.06066 3.35482,3.1287 4.69674,4.71009 11.18272,11.28215 3.13116,2.80918 2.23655,1.74439 1.78923,1.12399 1.34193,0.60093 1.11827,0.29032 1.11828,0.0673 1.34192,-0.16949 2.4602,-0.66012 2.68386,-0.5766 14.76119,-2.73133 4.69674,-1.18806 0.67097,-0.30087 0.67096,-0.57579 1.11827,-1.36323 1.34193,-2.04688 1.78924,-3.17655 2.9075,-5.70595 3.80213,-7.69038 0.22365,-0.1995 0.44731,0.92126 2.90751,6.73263 1.56558,3.09059 1.34193,2.16285 0.44731,0.5255 3.35481,0.11029 3.57848,0.36494 4.24943,0.67229 6.70963,1.32917 4.69675,1.10778 2.4602,0.77609 2.01289,0.87017 2.01289,1.13778 1.78923,0.96991 0.89462,0.2141 0.67096,-0.0519 0.67097,-0.27492 0.89462,-0.67472 1.78923,-1.79061 2.4602,-2.36316 2.4602,-2.01362 3.57847,-2.59347 11.40638,-8.10965 4.02578,-2.87244 1.78923,0.87827 1.78924,0.61472 1.34192,0.24734 1.11828,0.0113 1.11827,-0.22463 1.11827,-0.45739 1.78924,-1.01695 6.03867,-3.63231 1.78923,-0.74771 1.34193,-0.32682 1.11827,-0.0568 1.11827,0.18977 0.89462,0.35358 0.44731,0.20436 2.4602,-3.21872 0.44731,0.46387 7.15694,8.71058 5.14405,5.87707 4.24944,4.54546 3.13116,3.08734 2.01289,1.70789 1.11827,0.69581 0.67097,0.22626 0.44731,0.0211 0.44731,0.91883 2.01289,4.41976 1.11827,2.02255 0.67096,0.88395 1.56558,1.38918 2.01289,1.85225 1.78924,0.95045 2.23654,0.92369 2.23655,0.68769 2.23654,0.46631 2.23655,0.24572 2.23654,0.0211 2.23655,-0.20437 2.23654,-0.42413 2.4602,-0.70149 2.90751,-1.08101 6.48598,-2.53995 1.78923,-0.41926 1.56558,-0.16139 0.22366,-0.006 v 0"
       clip-path="url(#pd809ca9499)"
       style="fill:none;stroke:#ffffff;stroke-width:1.5;stroke-linecap:square;stroke-opacity:1;stroke-dasharray:none"
       id="path70" />
    <path
       d="m 151.69766,194.95828 0.67096,0.17598 0.67096,0.37142 0.89462,0.75257 0.89462,0.98046 0.44731,-0.57903 1.78923,-2.88136 2.68386,-4.80253 3.57847,-6.87942 4.9204,-9.97568 3.57847,-7.17137 0.89462,-1.44757 0.67096,-0.67554 0.44731,-0.11353 0.44731,0.18328 0.67096,0.68526 1.11827,1.66573 2.68386,4.61763 4.69674,8.00747 3.57847,5.65405 3.13116,4.52681 2.68386,3.5058 2.4602,2.85622 2.23654,2.24881 2.01289,1.69735 1.78924,1.21482 1.56558,0.8134 1.56558,0.56281 1.56558,0.29844 1.56558,0.0462 2.68386,-0.14922 2.68385,-0.37304 2.68385,-0.59768 2.68386,-0.82313 2.68385,-1.05101 2.90751,-1.39648 2.68385,-1.52867 2.90751,-1.91713 2.90751,-2.18798 2.9075,-2.4556 3.13117,-2.93245 3.57847,-3.67935 7.3806,-7.79743 1.11827,-0.84178 0.89462,-0.44441 0.89461,-0.16057 0.67097,0.0973 0.67096,0.28708 0.89462,0.64797 1.11827,1.13616 1.56558,1.97308 2.4602,3.52283 5.81502,8.61083 0.22365,0.10056 5.14405,-7.81527 0.22366,-0.15652 0.89462,-0.133 0.89461,-0.39575 0.89462,-0.64796 1.11827,-1.13616 1.34193,-1.77196 1.56558,-2.49615 2.01289,-3.65665 6.26233,-11.80278 0.89461,-1.05182 0.67097,-0.46226 0.67096,-0.18652 0.89462,0.0641 1.11827,0.35358 2.4602,1.10697 3.13116,1.33404 2.23655,0.7177 2.01289,0.43062 2.01289,0.20761 0.89462,0.0187 5.81501,4.9996 2.23655,1.56273 2.23654,1.30484 2.23654,1.05669 0.44731,0.11921 3.35482,-4.32812 1.56558,-1.69735 0.89462,-0.68688 0.89462,-0.36494 1.11827,-0.14516 1.78924,-0.03 1.11827,0.27573 1.11827,0.0633 1.34193,-0.17274 1.56558,-0.46712 2.01289,-0.85313 2.23654,-0.90747 1.34193,-0.26519 1.78924,-0.086 16.32677,0.10056 1.34193,0.27816 1.56558,0.5912 2.90751,1.15319 1.56558,0.36007 1.34192,0.0559 1.11828,-0.17192 0.44731,-0.11191 0.67096,0.27491 0.67096,0.0211 0.89462,-0.27492 1.11827,-0.66661 1.56558,-1.27727 2.01289,-1.95037 1.34193,-1.2424 0.44731,0.33736 2.01289,2.3299 4.02578,5.01988 6.03867,7.95151 13.64292,18.09263 1.34193,1.33647 1.11827,0.83692 0.89462,0.43954 0.89462,0.21572 0.89461,-0.005 0.89462,-0.22869 0.89462,-0.45819 1.11827,-0.88314 1.11827,-1.18401 1.56559,-2.03472 2.01289,-3.03138 2.90751,-4.84147 4.02578,-7.1819 6.26232,-11.68682 5.36771,-9.90513 1.11827,-1.74601 0.67096,-0.75014 0.44731,-0.27087 0.44731,-0.0722 0.67096,0.16706 0.67097,1.71762 6.70963,18.03587 0.89462,2.22042 0.22365,0.30979 0.44731,-0.70473 3.35482,-6.28579 1.78923,-2.82946 1.11828,-1.42892 2.01289,-0.11191 2.01289,-0.34061 2.01289,-0.55389 2.4602,-0.92855 5.59136,-2.28368 0.67096,-0.007 0.67096,0.20842 0.67097,0.4882 0.67096,0.77123 0.89462,1.36566 1.56558,2.87488 6.03867,11.54733 1.78924,2.80026 1.34192,1.68438 1.11827,1.04857 0.89462,0.5693 0.89462,0.31303 2.90751,0.39008 0.89462,-0.26762 1.11827,-0.61796 1.11827,-0.88638 1.34193,-1.3389 1.78923,-2.10932 2.90751,-3.8456 3.35482,-4.39705 1.11827,-1.1459 0.67096,-0.45982 0.67097,-0.20274 0.67096,0.077 0.67097,0.30735 1.11827,0.81097 6.70963,5.47401 1.11827,0.68689 0.22366,-0.0511 8.27521,-6.2566 3.13117,-0.0487 2.23654,-0.30735 2.23654,-0.53605 2.23655,-0.75582 2.4602,-1.06885 2.23654,-1.10535 2.4602,2.98517 0.44731,-0.48983 6.48598,-8.20048 2.90751,-3.47823 2.9075,7.4325 10.51176,27.31087 1.11828,2.71187 0.22365,0.0981 0.44731,-0.19869 0.67096,-0.62201 0.67097,-0.98208 1.11827,-2.17663 3.57847,-7.52008 0.44731,-0.44035 0.44731,-0.13462 0.44731,0.14678 0.67096,0.57092 1.11827,1.36242 4.9204,6.37338 2.23655,2.45155 2.23654,2.12391 2.23654,1.81738 2.23655,1.5384 2.4602,1.40621 2.4602,1.13941 2.4602,0.90017 2.68385,0.73149 2.68385,0.48982 2.68386,0.25789 1.56558,0.0462 v 0"
       clip-path="url(#pd809ca9499)"
       style="fill:none;stroke:#ffffff;stroke-width:1.5;stroke-linecap:square;stroke-opacity:1;stroke-dasharray:none"
       id="path71" />
    <path
       d="m 151.69766,179.63996 0.67096,-0.18166 0.67096,-0.3917 0.89462,-0.80204 1.11827,-1.35188 1.56558,-2.33071 2.01289,-3.44823 2.90751,-5.46996 2.01289,-3.68016 0.22366,0.0819 0.44731,0.95126 3.80212,9.56452 3.80213,-7.63199 0.89462,-1.44757 0.67096,-0.67554 0.44731,-0.11353 0.44731,0.18328 0.67096,0.68526 1.11827,1.66573 2.68386,4.61763 4.69674,8.00747 3.57847,5.65405 3.13116,4.52681 2.68386,3.5058 2.4602,2.85622 2.23654,2.24881 2.01289,1.69735 1.78924,1.21482 1.56558,0.8134 1.56558,0.56281 1.56558,0.29844 1.56558,0.0462 2.68386,-0.14922 2.68385,-0.37304 2.68385,-0.59768 2.68386,-0.82313 2.68385,-1.05101 2.90751,-1.39648 2.68385,-1.52867 2.90751,-1.91713 2.90751,-2.18798 2.9075,-2.4556 3.13117,-2.93245 3.57847,-3.67935 6.93329,-7.55739 2.68385,-3.70854 1.34193,2.11905 0.67096,0.24816 2.01289,-3.44417 1.34193,-1.86847 0.89461,-0.89287 0.67097,-0.4144 0.67096,-0.16625 0.67096,0.0811 0.67097,0.30087 0.89462,0.67147 1.11827,1.14265 1.56558,1.93253 2.68385,3.7345 4.24944,6.10657 0.89462,-0.12976 0.89461,-0.38602 0.89462,-0.63336 1.11827,-1.11102 1.11828,-1.42162 1.56558,-2.39965 2.01289,-3.56987 3.35481,-6.51286 2.23655,-4.16187 1.11827,-1.64464 0.67096,-0.67959 0.67097,-0.39007 0.67096,-0.12652 0.89462,0.11354 1.34193,0.47928 6.70963,2.82621 2.23654,0.56606 2.01289,0.27897 1.56559,0.0576 1.78923,-1.39162 1.34193,-0.77041 1.11827,-0.39332 1.11827,-0.14111 1.11828,0.086 1.34192,0.32358 2.23655,0.81015 4.24943,1.5603 2.01289,0.50685 1.34193,0.1476 0.89462,-0.0876 0.89461,-0.32682 2.23655,-1.0656 3.35481,-0.70798 2.0129,-0.0616 3.80212,-0.0649 1.11827,-0.24085 1.11827,-0.4728 1.34193,-0.82475 2.01289,-1.51407 4.24944,-3.30144 0.89461,-0.40954 0.67097,-0.10542 0.67096,0.0989 0.89462,0.40143 1.34193,0.93018 5.81501,4.41895 1.34193,0.66337 1.11827,0.31141 1.56558,0.15652 4.9204,0.26437 1.34193,0.38278 0.44731,0.16381 0.89461,-0.96262 0.89462,-1.30808 1.34193,-2.4183 1.11827,-2.27557 0.67096,0.58795 3.35482,3.35659 0.44731,-0.3179 2.23654,-2.49129 4.47309,-5.01582 0.67097,-0.50442 0.44731,-0.14678 0.4473,0.10218 0.44731,0.37548 0.67097,0.92531 1.34192,2.37288 7.60426,14.04997 2.4602,3.94616 2.01288,2.84243 1.78924,2.14906 1.56558,1.51894 1.34193,0.97721 1.11827,0.55227 1.11827,0.29032 1.11827,0.0211 1.11828,-0.24572 1.11827,-0.50686 1.11827,-0.74689 1.34193,-1.17428 1.56558,-1.68924 1.78924,-2.26341 2.23654,-3.2025 2.90751,-4.59493 3.80212,-6.4715 7.3806,-12.75648 0.22366,-0.30817 0.4473,0.26438 1.56559,1.12643 0.89461,0.36412 0.44731,-0.005 0.22366,-0.073 0.67096,1.5976 0.67096,1.77439 0.44731,0.3106 1.56558,0.94802 10.28811,6.83319 1.56558,1.41838 1.34193,1.4273 2.01289,-0.10705 2.01289,-0.33493 2.23654,-0.62444 2.23655,-0.85314 5.81501,-2.38423 0.67097,0.008 0.67096,0.23031 0.67096,0.51334 0.67097,0.79231 1.11827,1.76466 1.78923,3.35659 4.69675,8.97414 1.78923,2.94137 1.34193,1.84819 1.11827,1.22456 1.11827,0.88233 0.89462,0.43143 0.89462,0.1776 0.22365,0.004 0.89462,-0.54092 0.89462,-0.77122 1.11827,-1.27809 1.11827,-1.60003 1.34193,-2.28854 1.78924,-3.53824 2.4602,-5.45212 3.35481,-7.55577 0.22366,-0.19138 1.56558,1.8644 1.11827,0.98533 0.67096,0.33168 0.67097,0.0519 0.67096,-0.25221 0.67097,-0.50604 0.4473,-0.43792 0.22366,-0.0154 2.90751,2.36315 2.46019,1.72331 2.23655,1.31619 2.23654,1.06642 2.23655,0.81016 2.01289,0.51009 2.01289,0.29601 0.44731,-0.006 0.67096,-0.4509 4.9204,-3.64042 2.68385,-1.71763 1.78924,-0.89611 1.34193,-0.43549 1.11827,-0.12408 0.89461,0.11435 0.89462,0.3406 0.44731,0.21248 3.57847,-4.75064 3.57847,-4.36948 2.4602,-2.82216 0.22366,0.19626 1.34193,2.79458 1.11827,2.54076 7.15694,-8.64976 0.22365,0.27168 5.59137,12.84649 3.13116,6.66776 2.4602,4.74658 1.34192,2.21312 0.89462,1.09156 0.44731,0.29519 0.44731,0.0219 0.44731,-0.30736 0.44731,-0.60984 0.67096,-1.30647 1.34193,-3.27305 2.4602,-6.47069 4.02578,8.38457 3.57847,6.97997 3.35481,6.06278 2.90751,4.80172 2.4602,3.66395 2.23655,2.94785 2.01289,2.278 1.78923,1.67546 1.56558,1.15562 1.34193,0.73555 1.34193,0.48252 1.34192,0.21572 0.22366,0.01 v 0"
       clip-path="url(#pd809ca9499)"
       style="fill:none;stroke:#ffffff;stroke-width:1.5;stroke-linecap:square;stroke-opacity:1;stroke-dasharray:none"
       id="path72" />
    <path
       d="m 151.69766,127.99769 0.67096,1.7598 8.94618,25.28914 2.01289,5.2883 0.22365,0.4144 0.22366,0.06 0.44731,-0.67634 2.01289,-4.08808 2.68385,-5.69784 0.22365,-0.0559 2.23655,4.24702 1.11827,1.74439 0.67096,0.6731 0.44731,0.14435 0.44731,-0.16544 0.44731,-0.44684 0.67096,-1.02182 1.34193,-2.62022 2.4602,-5.43347 2.23655,-5.19342 0.22365,0.0916 5.14405,9.59209 3.57847,6.21848 3.13117,5.02718 2.68385,3.9202 2.23654,2.91461 2.01289,2.27152 1.56559,1.47433 1.34192,1.01614 1.34193,0.74852 1.11827,0.39413 1.11827,0.17111 1.34193,-0.0665 1.11827,-0.29924 1.11828,-0.52551 1.11827,-0.74284 1.34192,-1.16617 1.34193,-1.44514 1.56558,-2.01119 1.78924,-2.68105 2.01289,-3.44498 2.23654,-4.28271 2.68386,-5.6727 2.9075,-6.69209 3.35482,-8.30915 1.56558,-3.71503 5.14405,10.2133 4.9204,9.29285 4.9204,8.82087 4.24944,7.23705 0.22365,0.23599 3.13116,-4.86903 3.13116,-5.27858 3.35482,-6.09602 3.80213,-7.41709 2.90751,-5.69216 1.11827,-1.18482 0.89462,-0.63175 0.67096,-0.2368 0.67096,-0.0162 0.67097,0.24491 0.89461,0.64634 1.56558,1.50434 6.70964,6.75129 2.01289,1.67626 1.34192,0.88396 0.89462,0.39088 0.67097,0.11354 0.67096,-0.11841 0.67096,-0.4144 0.67097,-0.725 0.89462,-1.34945 1.34192,-2.48966 1.34193,-2.42235 0.22365,-0.15976 0.67097,0.13867 4.69674,1.40216 2.4602,0.4363 2.4602,0.1995 0.89462,0.0138 1.34192,1.04047 1.11828,0.59849 0.89461,0.26438 0.89462,0.0487 0.89462,-0.17598 0.89462,-0.38927 1.11827,-0.74527 1.34192,-1.18401 1.78924,-1.89685 2.68385,-2.93894 1.78924,2.72809 2.23654,3.14573 1.56559,1.8636 1.34192,1.25456 1.11827,0.71933 0.89462,0.31465 0.67097,0.0697 1.78923,-0.46712 1.34193,-0.45414 1.34193,-0.67391 1.78923,-1.17347 2.4602,-1.91874 4.02578,-3.23008 0.22365,-0.0714 0.22366,0.0519 0.67096,0.63499 3.13116,3.34442 1.11828,0.91477 0.89461,0.46955 0.67097,0.11596 0.67096,-0.11759 0.89462,-0.47198 1.11827,-0.92044 1.56558,-1.60166 2.01289,-2.05661 0.44731,0.18166 1.56558,1.27321 4.69675,3.85777 2.01289,1.33809 1.34192,0.66012 1.34193,0.40792 1.78924,0.24815 0.4473,-0.0114 0.67097,0.28303 1.11827,0.78096 2.01289,1.75493 0.89462,-1.87252 2.90751,-6.64586 3.57847,-8.5719 2.90751,5.46996 1.34192,2.31206 0.67097,0.80366 0.4473,0.23843 0.44731,-0.0381 0.67097,-0.42657 1.11827,-1.14751 2.23654,-2.73295 6.93329,-8.623 2.23655,-2.37207 1.56558,-1.35837 0.67096,-0.38196 1.11827,-0.23437 2.90751,-0.30898 2.68385,-0.0795 2.23655,0.14678 2.01289,0.35034 1.56558,0.47685 1.34193,0.61309 1.34192,0.83772 1.78924,1.40703 2.4602,2.25367 4.9204,4.89904 4.9204,4.78307 2.01289,1.78332 1.11827,-0.83287 0.44731,0.0341 0.67096,0.39088 0.44731,0.46712 0.44731,0.70473 0.44731,0.94639 0.22365,-0.0543 0.67096,-0.65932 0.22366,-0.27816 0.22365,-0.0608 2.90751,1.68762 2.01289,0.88071 1.78924,0.53929 1.56558,0.2368 1.34193,-0.0154 1.11827,-0.20355 1.11827,-0.4144 1.11827,-0.665 1.11827,-0.95207 1.11828,-1.19942 2.4602,-0.11921 2.46019,-0.35682 2.4602,-0.58795 3.80213,-1.10373 0.44731,0.53686 1.56558,3.00463 1.34193,2.31774 0.89461,1.11507 0.67097,0.49145 0.67096,0.18571 0.67096,-0.0633 0.89462,-0.34952 1.11827,-0.68932 1.78924,-1.41838 2.4602,-2.28368 3.57847,-3.67124 2.68385,-2.69808 1.11828,-0.8207 0.67096,-0.22058 0.67096,0.0641 0.67097,0.3771 0.89462,0.89287 1.34192,1.78007 2.4602,3.7426 5.59136,8.5792 1.56558,2.17015 0.22366,0.0722 0.67096,-0.95207 0.44731,-0.29195 0.44731,-0.0162 0.67096,0.30249 1.11827,0.85314 2.4602,2.15392 0.22366,-0.0316 1.56558,-1.93172 3.35482,-4.64439 5.81501,-7.99288 2.90751,-3.61852 1.78924,-1.92442 1.34192,-1.15076 0.89462,-0.53524 0.89462,-0.26437 0.67096,0.0259 0.67097,0.24085 0.67096,0.45252 0.89462,0.88395 1.34192,1.74196 2.90751,4.36786 2.01289,2.82215 1.34193,1.56436 1.11827,1.02506 0.89462,0.60741 0.22365,0.0827 2.23655,-2.48074 1.56558,-1.43541 1.11827,-0.76312 0.89462,-0.36331 0.67096,-0.0714 0.67096,0.14841 0.67097,0.40548 0.67096,0.67797 0.89462,1.29835 0.22365,0.38602 0.22366,-0.0397 4.9204,-5.33858 2.46019,-2.59671 0.22366,0.16787 2.01289,4.64764 0.22365,-0.0154 5.14406,-6.00438 1.56558,-1.52056 0.67096,-0.40143 0.44731,-0.0649 0.44731,0.18166 0.44731,0.45008 0.67096,1.06399 1.34193,2.76134 4.69674,10.63337 4.02578,8.87439 0.22366,0.21572 4.47309,-12.96895 0.89461,-2.65186 0.22366,0.0389 3.80212,7.38465 3.35482,6.03844 2.90751,4.7847 2.4602,3.63799 2.01289,2.6259 1.78923,2.0039 1.56559,1.44433 1.34192,0.96748 1.34193,0.68364 1.11827,0.3325 0.89462,0.10218 v 0"
       clip-path="url(#pd809ca9499)"
       style="fill:none;stroke:#ffffff;stroke-width:1.5;stroke-linecap:square;stroke-opacity:1;stroke-dasharray:none"
       id="path73" />
    <path
       d="m 151.69766,126.31251 0.67096,-1.76142 2.23654,-6.41879 12.07735,27.0984 3.35481,6.82103 1.78924,3.24062 0.89462,1.26105 0.4473,0.40224 0.44731,0.14435 0.44731,-0.16544 0.44731,-0.44684 0.67096,-1.02182 1.34193,-2.62022 2.4602,-5.43347 4.24944,-9.98623 5.59136,-13.74586 6.93328,-17.65957 6.48598,-16.370958 2.01289,-4.513832 1.11828,-2.045254 0.67096,-0.888818 0.44731,-0.372233 0.44731,-0.147596 0.44731,0.03812 0.44731,0.306544 0.67096,0.896928 0.89462,1.659235 1.78923,3.903175 15.20851,34.367889 5.3677,11.23836 0.22366,0.45657 0.22365,0.10786 1.56558,-4.1708 0.22366,0.0389 5.14405,10.15815 4.47309,8.35619 3.13116,5.40102 2.01289,3.07681 1.34193,1.71032 1.11827,1.06966 0.89462,0.52064 0.67096,0.1549 0.67097,-0.0584 0.67096,-0.2587 0.89462,-0.61147 1.11827,-1.09156 1.34193,-1.63328 2.01289,-2.8473 3.13116,-4.90309 4.24943,-6.63775 1.34193,-1.74439 1.11827,-1.10778 0.89462,-0.54659 0.67096,-0.163 0.67097,0.0608 0.67096,0.31303 0.89462,0.68446 1.78923,1.73789 5.81502,5.81949 2.23654,1.88631 1.34193,0.89692 0.89462,0.40792 0.67096,0.13381 0.67097,-0.09 0.67096,-0.38115 0.67096,-0.69176 0.89462,-1.31538 1.34193,-2.45236 1.11827,-2.04201 0.44731,-0.3917 0.67096,-0.0689 1.34193,0.40467 3.13116,0.91639 2.4602,0.47442 2.4602,0.23923 1.34193,0.0308 1.56558,-1.57408 2.23654,-2.60158 3.35482,-4.30217 1.56558,-1.9082 0.44731,-0.25627 0.22365,0.0535 0.44731,0.43792 1.11827,1.67789 2.01289,3.22196 0.67097,-0.38115 0.44731,-0.017 0.44731,0.22139 0.67096,0.63012 1.78923,2.1969 2.0129,2.3737 1.34192,1.24483 0.89462,0.57417 0.89462,0.3033 0.44731,0.0365 0.67096,-0.43468 0.67096,-0.70797 0.89462,-1.25619 1.34193,-2.32503 3.57847,-6.63532 0.44731,-0.17922 0.44731,0.18571 0.67096,0.61957 1.78923,2.14339 2.23655,2.66726 0.44731,0.20517 0.44731,-0.20436 3.13116,-1.97551 1.11827,-0.43224 1.11827,-0.1922 1.11828,0.077 1.11827,0.33574 1.34193,0.67878 1.78923,1.2132 1.34193,0.94315 0.22365,0.0268 0.44731,-0.35358 1.78924,-2.1596 2.4602,-2.93569 0.67096,-0.53281 0.44731,-0.0576 0.44731,0.33249 0.67096,1.04534 2.01289,3.98751 1.78924,3.27549 1.11827,1.65761 0.89462,0.97154 0.44731,0.296 0.67096,-1.06561 1.34193,-2.79215 4.02578,-8.57596 0.89461,-1.47028 0.67097,-0.76879 0.44731,-0.28384 0.44731,-0.073 0.4473,0.13868 0.67097,0.55145 0.89462,1.18807 1.11827,1.81332 2.90751,-7.04567 2.68385,0.19139 2.90751,-0.0178 3.80212,-0.27492 4.69675,-0.58308 3.80212,-0.61066 0.67097,-0.28951 2.01289,-1.07697 1.34192,-0.46387 1.56558,-0.28059 1.56558,-0.043 1.56559,0.16543 1.56558,0.3771 1.56558,0.58552 2.01289,0.99992 2.90751,1.69654 2.23654,1.54002 2.68386,2.13933 4.69674,4.10835 3.80212,3.22277 1.56559,1.07048 0.67096,0.22788 1.11827,0.12326 0.44731,0.55308 1.11827,1.74763 0.89462,0.82232 0.44731,0.31222 0.22365,-0.10137 1.11828,-1.77033 5.59136,-9.32286 0.67096,-0.77447 0.44731,-0.25951 0.44731,0.0989 0.44731,0.47928 0.67096,1.14265 4.69674,8.91818 1.11828,1.51894 2.4602,-0.11516 2.46019,-0.35277 2.4602,-0.58389 3.80213,-0.97397 0.22365,0.0527 0.44731,0.45657 0.89462,1.63653 1.78924,3.22602 0.89461,1.18807 0.67097,0.56199 0.67096,0.25221 0.67096,-0.0146 0.89462,-0.30574 1.11827,-0.65931 1.56559,-1.20185 2.23654,-2.01606 3.13116,-3.13681 3.57847,-3.58042 0.89462,-0.66904 0.67097,-0.29276 0.67096,-0.0316 0.67096,0.21653 0.89462,0.56443 1.34193,1.16455 2.01289,2.08499 7.38059,8.01152 0.67097,0.40305 0.44731,0.0722 0.4473,-0.18814 0.44731,-0.48821 0.67097,-1.14832 1.56558,-3.37118 1.78924,-3.73126 0.89461,-1.46379 0.89462,-1.03155 0.89462,-0.64309 1.11827,-0.47198 1.78924,-0.44198 6.03867,-1.3016 2.9075,-0.9026 2.90751,-1.13211 4.24944,-1.77196 0.44731,8.1e-4 0.4473,0.2141 0.44731,0.47685 0.89462,1.42081 4.9204,8.5646 1.34193,1.80115 1.11827,1.13617 0.67096,0.44765 5.36771,-7.65876 2.23654,-2.77755 1.78924,-1.90496 1.34193,-1.1313 0.89461,-0.5109 0.67097,-0.18004 0.67096,0.0649 0.67096,0.37142 0.67097,0.69743 0.89461,1.36486 1.11828,2.16933 0.89461,1.9382 0.22366,0.0981 8.94618,-9.5183 0.22365,0.0487 0.67097,1.12562 0.4473,0.49388 0.44731,0.22058 0.44731,-0.0373 0.67097,-0.38602 0.89461,-0.82476 1.78924,-2.03309 3.13116,-3.93399 0.22366,0.0487 8.49887,18.17292 0.89461,1.81575 0.22366,-0.25464 7.38059,-22.3202 8.94618,-26.997835 2.90751,-8.083701 1.56558,-3.7645 0.89462,-1.648693 0.67096,-0.729057 0.22366,-0.102993 v 0"
       clip-path="url(#pd809ca9499)"
       style="fill:none;stroke:#ffffff;stroke-width:1.5;stroke-linecap:square;stroke-opacity:1;stroke-dasharray:none"
       id="path74" />
    <path
       d="M 129.32103,421.297 V 65.508"
       style="fill:none;stroke:#ffffff;stroke-width:0.9;stroke-linecap:square;stroke-linejoin:miter;stroke-opacity:1;stroke-dasharray:none"
       id="path75" />
    <path
       d="M 621.60686,421.297 V 65.508"
       style="fill:none;stroke:#ffffff;stroke-width:0.9;stroke-linecap:square;stroke-linejoin:miter;stroke-opacity:1;stroke-dasharray:none"
       id="path76" />
    <path
       d="M 129.32103,421.297 H 621.60686"
       style="fill:none;stroke:#ffffff;stroke-width:0.9;stroke-linecap:square;stroke-linejoin:miter;stroke-opacity:1;stroke-dasharray:none"
       id="path77" />
    <path
       d="M 129.32103,65.508 H 621.60686"
       style="fill:none;stroke:#ffffff;stroke-width:0.9;stroke-linecap:square;stroke-linejoin:miter;stroke-opacity:1;stroke-dasharray:none"
       id="path78" />
    <use
       xlink:href="#DejaVuSans-20"
       x="256.73828"
       id="use82"
       transform="matrix(0.096,0,0,-0.096,327.77669,59.508)" />
    <use
       xlink:href="#DejaVuSans-20"
       x="742.28125"
       id="use92"
       transform="matrix(0.096,0,0,-0.096,327.77669,59.508)" />
    <use
       xlink:href="#DejaVuSans-20"
       x="870.45508"
       id="use95"
       transform="matrix(0.096,0,0,-0.096,327.77669,59.508)" />
    <text
       xml:space="preserve"
       style="font-size:22.9714px;fill:#ffffff;fill-opacity:1;stroke:none;stroke-width:2.87143;stroke-dasharray:none;stroke-opacity:1;-inkscape-font-specification:'sans-serif Bold';font-family:sans-serif;font-weight:bold;font-style:normal;font-stretch:normal;font-variant:normal"
       x="273.67529"
       y="93.890968"
       id="text97"><tspan
         sodipodi:role="line"
         id="tspan97"
         style="fill:#ffffff;fill-opacity:1;stroke:none;stroke-width:2.87143;-inkscape-font-specification:'sans-serif Bold';font-family:sans-serif;font-weight:bold;font-style:normal;font-stretch:normal;font-variant:normal"
         x="273.67529"
         y="93.890968">Si Bandstrukture</tspan></text>
    <use
       xlink:href="#m539120c8fd"
       x="129.32103"
       y="262.67712"
       style="stroke:#ffffff;stroke-width:1;stroke-dasharray:none;stroke-opacity:1;fill:#404040;fill-opacity:1"
       id="use97" />
    <use
       xlink:href="#m539120c8fd"
       x="129.32103"
       y="262.67712"
       style="stroke:#ffffff;stroke-width:1;stroke-dasharray:none;stroke-opacity:1;fill:#404040;fill-opacity:1"
       id="use98" />
    <use
       xlink:href="#m539120c8fd"
       x="129.32103"
       y="262.67712"
       style="stroke:#ffffff;stroke-width:1;stroke-dasharray:none;stroke-opacity:1;fill:#404040;fill-opacity:1"
       id="use99" />
    <text
       xml:space="preserve"
       style="font-size:17.9986px;fill:#ffffff;fill-opacity:1;stroke:none;stroke-width:1.49988"
       x="-292.14719"
       y="104.93751"
       id="text1"
       transform="rotate(-90)"><tspan
         sodipodi:role="line"
         id="tspan1"
         style="font-style:normal;font-variant:normal;font-weight:bold;font-stretch:normal;font-family:sans-serif;-inkscape-font-specification:'sans-serif Bold';fill:#ffffff;fill-opacity:1;stroke:none;stroke-width:1.49988"
         x="-292.14719"
         y="104.93751">Energy (eV)</tspan></text>
    <text
       xml:space="preserve"
       style="font-size:12px;fill:#ffffff;fill-opacity:1;stroke:none;stroke-width:0.999997"
       x="105.93208"
       y="388.91135"
       id="text2"><tspan
         sodipodi:role="line"
         id="tspan2"
         style="stroke-width:1"
         x="105.93208"
         y="388.91135">-10</tspan></text>
    <text
       xml:space="preserve"
       style="font-size:12px;fill:#ffffff;fill-opacity:1;stroke:none;stroke-width:0.999997"
       x="109.77209"
       y="348.19247"
       id="text3"><tspan
         sodipodi:role="line"
         id="tspan3"
         style="stroke-width:1"
         x="109.77209"
         y="348.19247">- 5</tspan></text>
    <text
       xml:space="preserve"
       style="font-size:12px;fill:#ffffff;fill-opacity:1;stroke:none;stroke-width:0.999997"
       x="116.66005"
       y="307.59106"
       id="text4"><tspan
         sodipodi:role="line"
         id="tspan4"
         style="stroke-width:1"
         x="116.66005"
         y="307.59106">0</tspan></text>
    <text
       xml:space="preserve"
       style="font-size:12px;fill:#ffffff;fill-opacity:1;stroke:none;stroke-width:0.999997"
       x="116.75605"
       y="266.71725"
       id="text5"><tspan
         sodipodi:role="line"
         id="tspan5"
         style="stroke-width:1"
         x="116.75605"
         y="266.71725">5</tspan></text>
    <text
       xml:space="preserve"
       style="font-size:12px;fill:#ffffff;fill-opacity:1;stroke:none;stroke-width:0.999997"
       x="109.79607"
       y="226.37219"
       id="text6"><tspan
         sodipodi:role="line"
         id="tspan6"
         style="stroke-width:1"
         x="109.79607"
         y="226.37219">10</tspan></text>
    <text
       xml:space="preserve"
       style="font-size:12px;fill:#ffffff;fill-opacity:1;stroke:none;stroke-width:0.999997"
       x="109.89207"
       y="186.09106"
       id="text7"><tspan
         sodipodi:role="line"
         id="tspan7"
         style="stroke-width:1"
         x="109.89207"
         y="186.09106">15</tspan></text>
    <text
       xml:space="preserve"
       style="font-size:12px;fill:#ffffff;fill-opacity:1;stroke:none;stroke-width:0.999997"
       x="99.616364"
       y="184.91135"
       id="text8"><tspan
         sodipodi:role="line"
         id="tspan8"
         style="stroke-width:1"
         x="99.616364"
         y="184.91135" /></text>
    <text
       xml:space="preserve"
       style="font-size:12px;fill:#ffffff;fill-opacity:1;stroke:none;stroke-width:0.999997"
       x="109.79607"
       y="144.9505"
       id="text9"><tspan
         sodipodi:role="line"
         id="tspan9"
         style="stroke-width:1"
         x="109.79607"
         y="144.9505">20</tspan></text>
    <text
       xml:space="preserve"
       style="font-size:12px;fill:#ffffff;fill-opacity:1;stroke:none;stroke-width:0.999997"
       x="109.89207"
       y="104.55193"
       id="text10"><tspan
         sodipodi:role="line"
         id="tspan10"
         style="stroke-width:1"
         x="109.89207"
         y="104.55193">25</tspan></text>
    <text
       xml:space="preserve"
       style="font-size:12px;fill:#ffffff;fill-opacity:1;stroke:none;stroke-width:0.999997"
       x="325.44345"
       y="435.79758"
       id="text11"><tspan
         sodipodi:role="line"
         id="tspan11"
         style="stroke-width:1"
         x="325.44345"
         y="435.79758">K</tspan></text>
    <text
       xml:space="preserve"
       style="font-size:12px;fill:#ffffff;fill-opacity:1;stroke:none;stroke-width:0.999997"
       x="528.08466"
       y="435.79758"
       id="text12"><tspan
         sodipodi:role="line"
         id="tspan12"
         style="stroke-width:1"
         x="528.08466"
         y="435.79758">K</tspan></text>
    <text
       xml:space="preserve"
       style="font-size:12px;fill:#ffffff;fill-opacity:1;stroke:none;stroke-width:0.999997"
       x="596.00336"
       y="-427.22958"
       id="text13"
       transform="scale(1,-1)"><tspan
         sodipodi:role="line"
         id="tspan13"
         style="stroke-width:1"
         x="596.00336"
         y="-427.22958">L</tspan></text>
    <text
       xml:space="preserve"
       style="font-size:12px;fill:#ffffff;fill-opacity:1;stroke:none;stroke-width:0.999997"
       x="478.10733"
       y="435.79758"
       id="text14"><tspan
         sodipodi:role="line"
         id="tspan14"
         style="stroke-width:1"
         x="478.10733"
         y="435.79758">X</tspan></text>
    <text
       xml:space="preserve"
       style="font-size:12px;fill:#ffffff;fill-opacity:1;stroke:none;stroke-width:0.999997"
       x="443.99707"
       y="435.79758"
       id="text15"><tspan
         sodipodi:role="line"
         id="tspan15"
         style="stroke-width:1"
         x="443.99707"
         y="435.79758">W</tspan></text>
    <text
       xml:space="preserve"
       style="font-size:12px;fill:#ffffff;fill-opacity:1;stroke:none;stroke-width:0.999997"
       x="400.7146"
       y="435.79758"
       id="text16"><tspan
         sodipodi:role="line"
         id="tspan16"
         style="stroke-width:1"
         x="400.7146"
         y="435.79758">L</tspan></text>
    <text
       xml:space="preserve"
       style="font-size:12px;fill:#ffffff;fill-opacity:1;stroke:none;stroke-width:0.999997"
       x="360.8786"
       y="435.79758"
       id="text17"><tspan
         sodipodi:role="line"
         id="tspan17"
         style="stroke-width:1"
         x="360.8786"
         y="435.79758">U</tspan></text>
    <text
       xml:space="preserve"
       style="font-size:12px;fill:#ffffff;fill-opacity:1;stroke:none;stroke-width:0.999997"
       x="297.40146"
       y="435.79758"
       id="text18"><tspan
         sodipodi:role="line"
         id="tspan18"
         style="stroke-width:1"
         x="297.40146"
         y="435.79758">W</tspan></text>
    <text
       xml:space="preserve"
       style="font-size:12px;fill:#ffffff;fill-opacity:1;stroke:none;stroke-width:0.999997"
       x="268.44254"
       y="435.79758"
       id="text19"><tspan
         sodipodi:role="line"
         id="tspan19"
         style="stroke-width:1"
         x="268.44254"
         y="435.79758">X</tspan></text>
    <text
       xml:space="preserve"
       style="font-size:12px;fill:#ffffff;fill-opacity:1;stroke:none;stroke-width:0.999997"
       x="147.62595"
       y="435.79758"
       id="text20"><tspan
         sodipodi:role="line"
         id="tspan20"
         style="stroke-width:1"
         x="147.62595"
         y="435.79758">L</tspan></text>
    <text
       xml:space="preserve"
       style="font-size:12px;fill:#ffffff;fill-opacity:1;stroke:none;stroke-width:0.999997"
       x="203.45628"
       y="-427.22958"
       id="text21"
       transform="scale(1,-1)"><tspan
         sodipodi:role="line"
         id="tspan21"
         style="stroke-width:1"
         x="203.45628"
         y="-427.22958">L</tspan></text>
    <text
       xml:space="preserve"
       style="font-size:18px;fill:#ffffff;fill-opacity:1;stroke:none;stroke-width:0.999997"
       x="377.07507"
       y="447.42078"
       id="text22"><tspan
         sodipodi:role="line"
         id="tspan22"
         style="font-style:normal;font-variant:normal;font-weight:bold;font-stretch:normal;font-family:sans-serif;-inkscape-font-specification:'sans-serif Bold';stroke-width:1;font-size:18px"
         x="377.07507"
         y="447.42078">k</tspan></text>
    <path
       id="rect39"
       style="display:inline;fill:#ff8f00;fill-opacity:0.344148;stroke-width:0.7;stroke-dasharray:2.80001, 1.4;filter:url(#filter39)"
       transform="matrix(5.5270405,0,0,1.2358131,-69.324025,173.64529)"
       d="m 49.690315,103.35482 5.159493,13.00401 8.033907,7.15858 13.179793,-1.69243 9.236207,-8.97573 8.74284,11.43461 9.310155,-0.65554 9.16296,-14.45431 8.42844,-1.37891 v 84.72568 H 39.054565 l -0.333293,-73.80397 z"
       sodipodi:nodetypes="ccccccccccccc" />
    <text
       xml:space="preserve"
       style="font-size:19.0325px;fill:#f2f2f2;stroke-width:5.84461"
       x="-411.6973"
       y="616.45605"
       id="text23"
       transform="rotate(-90)"><tspan
         sodipodi:role="line"
         id="tspan23"
         style="font-style:normal;font-variant:normal;font-weight:bold;font-stretch:normal;font-family:sans-serif;-inkscape-font-specification:'sans-serif Bold';stroke-width:5.84461"
         x="-411.6973"
         y="616.45605">Valenzband</tspan></text>
    <text
       xml:space="preserve"
       style="font-style:normal;font-variant:normal;font-weight:bold;font-stretch:normal;font-size:19.0325px;font-family:sans-serif;-inkscape-font-specification:'sans-serif Bold';fill:#f2f2f2;stroke-width:5.84461"
       x="-278.86996"
       y="617.09662"
       id="text24"
       transform="rotate(-90)"><tspan
         sodipodi:role="line"
         id="tspan24"
         style="font-style:normal;font-variant:normal;font-weight:bold;font-stretch:normal;font-family:sans-serif;-inkscape-font-specification:'sans-serif Bold';stroke-width:5.84461"
         x="-278.86996"
         y="617.09662">Leitungsband</tspan></text>
  </g>
  <defs
     id="defs97">
    <clipPath
       id="pd809ca9499">
      <rect
         x="129.32103"
         y="65.508003"
         width="492.28583"
         height="355.789"
         id="rect97" />
    </clipPath>
  </defs>
</svg>
