<?xml version="1.0" encoding="UTF-8" standalone="no"?>
<svg
   version="1.1"
   id="Ebene_1"
   x="0px"
   y="0px"
   viewBox="0 0 199.778 51.607"
   style="enable-background:new 0 0 199.778 51.607;"
   xml:space="preserve"
   sodipodi:docname="Logo_Fakultaet_Physik__deutsch__RGB_white_font.svg"
   inkscape:version="1.3.2 (091e20e, 2023-11-25)"
   xmlns:inkscape="http://www.inkscape.org/namespaces/inkscape"
   xmlns:sodipodi="http://sodipodi.sourceforge.net/DTD/sodipodi-0.dtd"
   xmlns="http://www.w3.org/2000/svg"
   xmlns:svg="http://www.w3.org/2000/svg"><defs
   id="defs22" /><sodipodi:namedview
   id="namedview22"
   pagecolor="#626262"
   bordercolor="#4e4e4e"
   borderopacity="1"
   inkscape:showpageshadow="2"
   inkscape:pageopacity="0.0"
   inkscape:pagecheckerboard="0"
   inkscape:deskcolor="#d1d1d1"
   inkscape:zoom="2.0900527"
   inkscape:cx="79.663062"
   inkscape:cy="-52.391023"
   inkscape:window-width="1920"
   inkscape:window-height="1013"
   inkscape:window-x="0"
   inkscape:window-y="45"
   inkscape:window-maximized="1"
   inkscape:current-layer="g14" />
<g
   id="g22">
	<g
   id="g14">
		<path
   style="fill:#ffffff;fill-opacity:1"
   d="M136.137,9.402v0.997h-7.812v5.46h7.034v0.997h-7.034v6.676h-1.037V9.402H136.137z"
   id="path1" />
		<path
   style="fill:#ffffff;fill-opacity:1"
   d="M137.55,20.761c0-1.773,1.355-2.87,3.348-3.009l3.667-0.259v-0.877c0-1.674-1.215-2.391-2.75-2.391    c-1.495,0-2.73,0.717-2.83,2.212h-0.997c0.14-2.053,1.793-3.149,3.786-3.149c2.272,0,3.787,1.116,3.787,3.408v4.922    c0,0.678,0.1,1.076,0.777,1.076c0.08,0,0.199,0,0.279-0.02v0.877c-0.14,0.04-0.319,0.06-0.479,0.06    c-1.235,0-1.574-0.937-1.574-1.993c-0.538,1.415-2.052,2.192-3.587,2.192C139.045,23.81,137.55,22.634,137.55,20.761z     M144.565,18.928V18.41l-3.567,0.219c-1.535,0.1-2.431,0.937-2.431,2.112c0,1.395,1.076,2.152,2.491,2.152    C143.569,22.894,144.565,20.861,144.565,18.928z"
   id="path2" />
		<path
   style="fill:#ffffff;fill-opacity:1"
   d="M149.307,9.104h1.016v10.522l5.58-6.058h1.275l-3.886,4.185l3.966,5.779h-1.236l-3.447-5.042    l-2.252,2.471v2.571h-1.016V9.104z"
   id="path3" />
		<path
   style="fill:#ffffff;fill-opacity:1"
   d="M159.429,20.004v-6.437h0.996v6.377c0,1.733,0.857,2.89,2.611,2.89    c2.312,0,3.268-1.854,3.268-4.085v-5.181h0.997v9.964h-0.917l-0.08-1.873c-0.558,1.315-1.833,2.152-3.328,2.152    C160.724,23.81,159.429,22.236,159.429,20.004z"
   id="path4" />
		<path
   style="fill:#ffffff;fill-opacity:1"
   d="M170.965,21.539V9.104h0.997v12.395c0,0.678,0.199,1.196,1.036,1.196    c0.398,0,0.578-0.02,0.857-0.06v0.897c-0.219,0.06-0.479,0.12-0.897,0.12C171.683,23.651,170.965,22.993,170.965,21.539z"
   id="path5" />
		<path
   style="fill:#ffffff;fill-opacity:1"
   d="M177.062,20.94v-6.457h-2.352v-0.917h2.352v-2.75l0.997-0.239v2.989h3.128v0.917h-3.128v6.317    c0,1.096,0.338,1.933,1.793,1.933c0.538,0,0.957-0.06,1.475-0.18v0.877c-0.498,0.159-0.997,0.239-1.554,0.239    C177.82,23.671,177.062,22.535,177.062,20.94z"
   id="path6" />
		<path
   style="fill:#ffffff;fill-opacity:1"
   d="M182.9,20.761c0-1.773,1.355-2.87,3.348-3.009l3.667-0.259v-0.877c0-1.674-1.215-2.391-2.75-2.391    c-1.495,0-2.73,0.717-2.83,2.212h-0.997c0.14-2.053,1.793-3.149,3.787-3.149c2.271,0,3.786,1.116,3.786,3.408v4.922    c0,0.678,0.1,1.076,0.777,1.076c0.08,0,0.199,0,0.279-0.02v0.877c-0.14,0.04-0.319,0.06-0.479,0.06    c-1.235,0-1.574-0.937-1.574-1.993c-0.538,1.415-2.052,2.192-3.587,2.192C184.395,23.81,182.9,22.634,182.9,20.761z     M189.915,18.928V18.41l-3.567,0.219c-1.535,0.1-2.431,0.937-2.431,2.112c0,1.395,1.076,2.152,2.491,2.152    C188.919,22.894,189.915,20.861,189.915,18.928z M186.129,10.279v1.295h-1.255v-1.295H186.129z M189.517,10.279v1.295h-1.255    v-1.295H189.517z"
   id="path7" />
		<path
   style="fill:#ffffff;fill-opacity:1"
   d="M195.514,20.94v-6.457h-2.352v-0.917h2.352v-2.75l0.997-0.239v2.989h3.128v0.917h-3.128v6.317    c0,1.096,0.338,1.933,1.793,1.933c0.538,0,0.957-0.06,1.475-0.18v0.877c-0.498,0.159-0.997,0.239-1.554,0.239    C196.271,23.671,195.514,22.535,195.514,20.94z"
   id="path8" />
		<path
   style="fill:#ffffff;fill-opacity:1"
   d="M132.251,33.313c2.61,0,4.643,1.255,4.643,4.025s-2.033,4.025-4.643,4.025h-3.926v6.078h-1.037    V33.313H132.251z M135.818,37.338c0-2.192-1.574-3.029-3.627-3.029h-3.866v6.058h3.866    C134.244,40.368,135.818,39.53,135.818,37.338z"
   id="path9" />
		<path
   style="fill:#ffffff;fill-opacity:1"
   d="M140.5,33.014v6.297c0.558-1.275,2.033-2.113,3.428-2.113c2.272,0,3.567,1.435,3.567,3.667v6.576    h-0.996v-6.517c0-1.753-0.837-2.79-2.631-2.79c-2.431,0-3.368,2.172-3.368,4.324v4.982h-0.996V33.014H140.5z"
   id="path10" />
		<path
   style="fill:#ffffff;fill-opacity:1"
   d="M149.745,51.328v-0.976c0.359,0.179,0.797,0.299,1.295,0.299c0.957,0,1.554-0.438,2.013-1.594    l0.578-1.455l-4.065-10.124h1.096l3.448,8.848l3.328-8.848h1.056l-4.563,11.917c-0.618,1.614-1.515,2.212-2.83,2.212    C150.462,51.607,149.905,51.428,149.745,51.328z"
   id="path11" />
		<path
   style="fill:#ffffff;fill-opacity:1"
   d="M159.827,44.413h1.016c0.16,1.634,1.455,2.351,3.089,2.351c1.654,0,2.89-0.717,2.89-2.072    c0-0.877-0.618-1.614-1.833-1.773l-1.933-0.259c-1.674-0.219-2.81-1.016-2.81-2.531c0-1.774,1.714-2.93,3.587-2.93    c2.152,0,3.707,1.236,3.767,3.029h-0.997c-0.139-1.435-1.315-2.092-2.77-2.092c-1.455,0-2.57,0.777-2.57,1.893    c0,0.817,0.438,1.435,1.933,1.634l1.894,0.259c1.873,0.259,2.75,1.515,2.75,2.71c0,2.033-1.833,3.089-3.906,3.089    C161.561,47.721,159.927,46.465,159.827,44.413z"
   id="path12" />
		<path
   style="fill:#ffffff;fill-opacity:1"
   d="M171.863,33.313v1.475h-1.355v-1.475H171.863z M171.703,37.478v9.964h-1.016v-9.964H171.703z"
   id="path13" />
		<path
   style="fill:#ffffff;fill-opacity:1"
   d="M175.389,33.014h1.016v10.522l5.58-6.058h1.275l-3.886,4.185l3.966,5.779h-1.236l-3.447-5.042    l-2.252,2.471v2.571h-1.016V33.014z"
   id="path14" />
	</g>
	<g
   id="g18">
		<path
   style="fill:#83B818;"
   d="M55.208,6.665h7.241L64.182,0l-8.974,0.001c-7.159,0-11.55,5.033-11.55,11.629v35.815h6.618V33.842    h5.179l1.693-6.618h-6.872V11.63C50.275,8.432,51.829,6.665,55.208,6.665z"
   id="path15" />
		<g
   id="g17">
			<path
   style="fill:#ffffff;fill-opacity:1"
   d="M117.123,47.444l-0.001-22.339c0-7.159-4.999-11.551-11.551-11.551h-8.642     c-1.786,0-3.45,0.337-4.935,0.956l0-14.511h-6.62v47.444h0.004h6.617h0.001V25.106c0-3.378,1.757-4.932,4.934-4.932h8.642     c3.176,0,4.932,1.554,4.932,4.932v22.339H117.123z"
   id="path16" />
			<path
   style="fill:#ffffff;fill-opacity:1"
   d="M68.57,0.016l-1.288,0L65.608,6.68h2.962c3.379,0,4.933,1.767,4.933,4.965v10.63     c0,3.198-1.554,4.967-4.933,4.967l-8.323,0l-1.717,6.662h10.04c7.159,0,11.551-5.032,11.551-11.629v-10.63     C80.12,5.048,75.728,0.016,68.57,0.016z"
   id="path17" />
		</g>
	</g>
	<path
   style="fill:#ffffff;fill-opacity:1"
   d="M30.412,5.762l-9.276,10.9c0.442,0.259,0.851,0.567,1.211,0.926l9.159-10.761   c0.625,0.373,1.352,0.529,2.082,0.435c1.792-0.223,3.069-1.856,2.847-3.639c-0.107-0.865-0.547-1.635-1.238-2.169   c-0.69-0.535-1.545-0.77-2.415-0.66c-0.867,0.108-1.641,0.545-2.179,1.232c-0.538,0.688-0.775,1.542-0.668,2.407   C29.992,4.905,30.157,5.359,30.412,5.762z"
   id="path18" />
	<path
   style="fill:#ffffff;fill-opacity:1"
   d="M15.384,9.073l1.243,6.955c0.474-0.12,0.968-0.191,1.479-0.191c0.011,0,0.022,0.002,0.033,0.002   l-1.254-7.013c2.016-0.692,3.308-2.716,3.043-4.849c-0.31-2.483-2.596-4.257-5.086-3.94c-2.495,0.312-4.273,2.585-3.964,5.068   C11.163,7.383,13.109,9.069,15.384,9.073z"
   id="path19" />
	<path
   style="fill:#ffffff;fill-opacity:1"
   d="M13.03,38.909l3.874-11.168c-0.507-0.103-0.987-0.275-1.439-0.497l-3.879,11.182   c-0.425-0.066-0.851-0.075-1.271-0.022c-2.495,0.311-4.273,2.584-3.964,5.067c0.286,2.292,2.253,3.973,4.517,3.973   c0.188,0,0.379-0.012,0.57-0.036c2.494-0.311,4.272-2.583,3.963-5.066C15.217,40.864,14.34,39.604,13.03,38.909z"
   id="path20" />
	<path
   style="fill:#ffffff;fill-opacity:1"
   d="M36.579,29.346c-0.15-1.204-0.761-2.276-1.723-3.021c-0.96-0.742-2.151-1.069-3.363-0.919   c-1.147,0.144-2.201,0.723-2.939,1.607l-4.902-2.842c-0.198,0.473-0.46,0.912-0.767,1.315l4.901,2.842   c-0.258,0.686-0.347,1.421-0.257,2.145c0.31,2.481,2.587,4.251,5.086,3.939c1.208-0.15,2.286-0.76,3.034-1.717   C36.399,31.738,36.729,30.548,36.579,29.346z"
   id="path21" />
	<path
   style="fill:#ffffff;fill-opacity:1"
   d="M12.112,22.219c-0.007-0.123-0.019-0.245-0.019-0.37c0-0.394,0.04-0.777,0.113-1.15L6.524,20.3   c-0.224-1.782-1.865-3.056-3.652-2.826c-0.867,0.108-1.641,0.546-2.179,1.233c-0.538,0.688-0.775,1.542-0.668,2.406   c0.221,1.783,1.86,3.055,3.653,2.83c1.238-0.154,2.258-0.977,2.674-2.129L12.112,22.219z"
   id="path22" />
	<circle
   style="fill:#83B818;"
   cx="18.106"
   cy="21.849"
   r="6.012"
   id="circle22" />
</g>
</svg>
