<?xml version="1.0" encoding="UTF-8" standalone="no"?>
<svg
   version="1.1"
   id="Ebene_1"
   x="0px"
   y="0px"
   viewBox="0 0 199.778 51.607"
   style="enable-background:new 0 0 199.778 51.607;"
   xml:space="preserve"
   sodipodi:docname="Logo_Fakultaet_Physik_de_rgb_white_font.svg"
   inkscape:version="1.3.2 (091e20e, 2023-11-25)"
   xmlns:inkscape="http://www.inkscape.org/namespaces/inkscape"
   xmlns:sodipodi="http://sodipodi.sourceforge.net/DTD/sodipodi-0.dtd"
   xmlns="http://www.w3.org/2000/svg"
   xmlns:svg="http://www.w3.org/2000/svg"><defs
   id="defs22">
	
	
	
	
	
	
	
	

		
		
	
		
		
		
		
		
		
		
		
		
		
		
		
		
		
	</defs><sodipodi:namedview
   id="namedview22"
   pagecolor="#606060"
   bordercolor="#000000"
   borderopacity="0.25"
   inkscape:showpageshadow="2"
   inkscape:pageopacity="0.0"
   inkscape:pagecheckerboard="0"
   inkscape:deskcolor="#d1d1d1"
   inkscape:zoom="2.9557809"
   inkscape:cx="82.211776"
   inkscape:cy="-5.5822811"
   inkscape:window-width="1920"
   inkscape:window-height="1013"
   inkscape:window-x="0"
   inkscape:window-y="45"
   inkscape:window-maximized="1"
   inkscape:current-layer="Ebene_1" />
<path
   style="fill:#ffffff;fill-opacity:1"
   d="m 136.137,9.402 v 0.997 h -7.812 v 5.46 h 7.034 v 0.997 h -7.034 v 6.676 h -1.037 V 9.402 Z"
   id="path1" /><path
   style="fill:#ffffff;fill-opacity:1"
   d="m 137.55,20.761 c 0,-1.773 1.355,-2.87 3.348,-3.009 l 3.667,-0.259 v -0.877 c 0,-1.674 -1.215,-2.391 -2.75,-2.391 -1.495,0 -2.73,0.717 -2.83,2.212 h -0.997 c 0.14,-2.053 1.793,-3.149 3.786,-3.149 2.272,0 3.787,1.116 3.787,3.408 v 4.922 c 0,0.678 0.1,1.076 0.777,1.076 0.08,0 0.199,0 0.279,-0.02 v 0.877 c -0.14,0.04 -0.319,0.06 -0.479,0.06 -1.235,0 -1.574,-0.937 -1.574,-1.993 -0.538,1.415 -2.052,2.192 -3.587,2.192 -1.932,0 -3.427,-1.176 -3.427,-3.049 z m 7.015,-1.833 V 18.41 l -3.567,0.219 c -1.535,0.1 -2.431,0.937 -2.431,2.112 0,1.395 1.076,2.152 2.491,2.152 2.511,10e-4 3.507,-2.032 3.507,-3.965 z"
   id="path2" /><path
   style="fill:#ffffff;fill-opacity:1"
   d="m 149.307,9.104 h 1.016 v 10.522 l 5.58,-6.058 h 1.275 l -3.886,4.185 3.966,5.779 h -1.236 l -3.447,-5.042 -2.252,2.471 v 2.571 h -1.016 z"
   id="path3" /><path
   style="fill:#ffffff;fill-opacity:1"
   d="m 159.429,20.004 v -6.437 h 0.996 v 6.377 c 0,1.733 0.857,2.89 2.611,2.89 2.312,0 3.268,-1.854 3.268,-4.085 v -5.181 h 0.997 v 9.964 h -0.917 l -0.08,-1.873 c -0.558,1.315 -1.833,2.152 -3.328,2.152 -2.252,-0.001 -3.547,-1.575 -3.547,-3.807 z"
   id="path4" /><path
   style="fill:#ffffff;fill-opacity:1"
   d="M 170.965,21.539 V 9.104 h 0.997 v 12.395 c 0,0.678 0.199,1.196 1.036,1.196 0.398,0 0.578,-0.02 0.857,-0.06 v 0.897 c -0.219,0.06 -0.479,0.12 -0.897,0.12 -1.275,-0.001 -1.993,-0.659 -1.993,-2.113 z"
   id="path5" /><path
   style="fill:#ffffff;fill-opacity:1"
   d="m 177.062,20.94 v -6.457 h -2.352 v -0.917 h 2.352 v -2.75 l 0.997,-0.239 v 2.989 h 3.128 v 0.917 h -3.128 V 20.8 c 0,1.096 0.338,1.933 1.793,1.933 0.538,0 0.957,-0.06 1.475,-0.18 v 0.877 c -0.498,0.159 -0.997,0.239 -1.554,0.239 -1.953,0.002 -2.711,-1.134 -2.711,-2.729 z"
   id="path6" /><path
   style="fill:#ffffff;fill-opacity:1"
   d="m 182.9,20.761 c 0,-1.773 1.355,-2.87 3.348,-3.009 l 3.667,-0.259 v -0.877 c 0,-1.674 -1.215,-2.391 -2.75,-2.391 -1.495,0 -2.73,0.717 -2.83,2.212 h -0.997 c 0.14,-2.053 1.793,-3.149 3.787,-3.149 2.271,0 3.786,1.116 3.786,3.408 v 4.922 c 0,0.678 0.1,1.076 0.777,1.076 0.08,0 0.199,0 0.279,-0.02 v 0.877 c -0.14,0.04 -0.319,0.06 -0.479,0.06 -1.235,0 -1.574,-0.937 -1.574,-1.993 -0.538,1.415 -2.052,2.192 -3.587,2.192 -1.932,0 -3.427,-1.176 -3.427,-3.049 z m 7.015,-1.833 V 18.41 l -3.567,0.219 c -1.535,0.1 -2.431,0.937 -2.431,2.112 0,1.395 1.076,2.152 2.491,2.152 2.511,10e-4 3.507,-2.032 3.507,-3.965 z m -3.786,-8.649 v 1.295 h -1.255 v -1.295 z m 3.388,0 v 1.295 h -1.255 v -1.295 z"
   id="path7" /><path
   style="fill:#ffffff;fill-opacity:1"
   d="m 195.514,20.94 v -6.457 h -2.352 v -0.917 h 2.352 v -2.75 l 0.997,-0.239 v 2.989 h 3.128 v 0.917 h -3.128 V 20.8 c 0,1.096 0.338,1.933 1.793,1.933 0.538,0 0.957,-0.06 1.475,-0.18 v 0.877 c -0.498,0.159 -0.997,0.239 -1.554,0.239 -1.954,0.002 -2.711,-1.134 -2.711,-2.729 z"
   id="path8" /><path
   style="fill:#ffffff;fill-opacity:1"
   d="m 132.251,33.313 c 2.61,0 4.643,1.255 4.643,4.025 0,2.77 -2.033,4.025 -4.643,4.025 h -3.926 v 6.078 h -1.037 V 33.313 Z m 3.567,4.025 c 0,-2.192 -1.574,-3.029 -3.627,-3.029 h -3.866 v 6.058 h 3.866 c 2.053,0.001 3.627,-0.837 3.627,-3.029 z"
   id="path9" /><path
   style="fill:#ffffff;fill-opacity:1"
   d="m 140.5,33.014 v 6.297 c 0.558,-1.275 2.033,-2.113 3.428,-2.113 2.272,0 3.567,1.435 3.567,3.667 v 6.576 h -0.996 v -6.517 c 0,-1.753 -0.837,-2.79 -2.631,-2.79 -2.431,0 -3.368,2.172 -3.368,4.324 v 4.982 h -0.996 V 33.014 Z"
   id="path10" /><path
   style="fill:#ffffff;fill-opacity:1"
   d="m 149.745,51.328 v -0.976 c 0.359,0.179 0.797,0.299 1.295,0.299 0.957,0 1.554,-0.438 2.013,-1.594 l 0.578,-1.455 -4.065,-10.124 h 1.096 l 3.448,8.848 3.328,-8.848 h 1.056 l -4.563,11.917 c -0.618,1.614 -1.515,2.212 -2.83,2.212 -0.639,0 -1.196,-0.179 -1.356,-0.279 z"
   id="path11" /><path
   style="fill:#ffffff;fill-opacity:1"
   d="m 159.827,44.413 h 1.016 c 0.16,1.634 1.455,2.351 3.089,2.351 1.654,0 2.89,-0.717 2.89,-2.072 0,-0.877 -0.618,-1.614 -1.833,-1.773 l -1.933,-0.259 c -1.674,-0.219 -2.81,-1.016 -2.81,-2.531 0,-1.774 1.714,-2.93 3.587,-2.93 2.152,0 3.707,1.236 3.767,3.029 h -0.997 c -0.139,-1.435 -1.315,-2.092 -2.77,-2.092 -1.455,0 -2.57,0.777 -2.57,1.893 0,0.817 0.438,1.435 1.933,1.634 l 1.894,0.259 c 1.873,0.259 2.75,1.515 2.75,2.71 0,2.033 -1.833,3.089 -3.906,3.089 -2.373,0 -4.007,-1.256 -4.107,-3.308 z"
   id="path12" /><path
   style="fill:#ffffff;fill-opacity:1"
   d="m 171.863,33.313 v 1.475 h -1.355 v -1.475 z m -0.16,4.165 v 9.964 h -1.016 v -9.964 z"
   id="path13" /><path
   style="fill:#ffffff;fill-opacity:1"
   d="m 175.389,33.014 h 1.016 v 10.522 l 5.58,-6.058 h 1.275 l -3.886,4.185 3.966,5.779 h -1.236 l -3.447,-5.042 -2.252,2.471 v 2.571 h -1.016 z"
   id="path14" /><path
   style="fill:#83b818"
   d="m 55.208,6.665 h 7.241 L 64.182,0 55.208,0.001 c -7.159,0 -11.55,5.033 -11.55,11.629 v 35.815 h 6.618 V 33.842 h 5.179 l 1.693,-6.618 H 50.276 V 11.63 C 50.275,8.432 51.829,6.665 55.208,6.665 Z"
   id="path15" /><g
   id="g17">
			<path
   style="fill:#9c9b9b"
   d="m 117.123,47.444 -0.001,-22.339 c 0,-7.159 -4.999,-11.551 -11.551,-11.551 h -8.642 c -1.786,0 -3.45,0.337 -4.935,0.956 V -0.001 h -6.62 v 47.444 h 0.004 6.617 10e-4 V 25.106 c 0,-3.378 1.757,-4.932 4.934,-4.932 h 8.642 c 3.176,0 4.932,1.554 4.932,4.932 v 22.339 h 6.619 z"
   id="path16" />
			<path
   style="fill:#9c9b9b"
   d="M 68.57,0.016 H 67.282 L 65.608,6.68 h 2.962 c 3.379,0 4.933,1.767 4.933,4.965 v 10.63 c 0,3.198 -1.554,4.967 -4.933,4.967 h -8.323 l -1.717,6.662 h 10.04 c 7.159,0 11.551,-5.032 11.551,-11.629 V 11.645 C 80.12,5.048 75.728,0.016 68.57,0.016 Z"
   id="path17" />
		</g><path
   style="fill:#9c9b9b"
   d="m 30.412,5.762 -9.276,10.9 c 0.442,0.259 0.851,0.567 1.211,0.926 L 31.506,6.827 C 32.131,7.2 32.858,7.356 33.588,7.262 35.38,7.039 36.657,5.406 36.435,3.623 36.328,2.758 35.888,1.988 35.197,1.454 c -0.69,-0.535 -1.545,-0.77 -2.415,-0.66 -0.867,0.108 -1.641,0.545 -2.179,1.232 -0.538,0.688 -0.775,1.542 -0.668,2.407 0.057,0.472 0.222,0.926 0.477,1.329 z"
   id="path18" /><path
   style="fill:#9c9b9b"
   d="m 15.384,9.073 1.243,6.955 c 0.474,-0.12 0.968,-0.191 1.479,-0.191 0.011,0 0.022,0.002 0.033,0.002 L 16.885,8.826 c 2.016,-0.692 3.308,-2.716 3.043,-4.849 -0.31,-2.483 -2.596,-4.257 -5.086,-3.94 -2.495,0.312 -4.273,2.585 -3.964,5.068 0.285,2.278 2.231,3.964 4.506,3.968 z"
   id="path19" /><path
   style="fill:#9c9b9b"
   d="m 13.03,38.909 3.874,-11.168 c -0.507,-0.103 -0.987,-0.275 -1.439,-0.497 l -3.879,11.182 c -0.425,-0.066 -0.851,-0.075 -1.271,-0.022 -2.495,0.311 -4.273,2.584 -3.964,5.067 0.286,2.292 2.253,3.973 4.517,3.973 0.188,0 0.379,-0.012 0.57,-0.036 2.494,-0.311 4.272,-2.583 3.963,-5.066 -0.184,-1.478 -1.061,-2.738 -2.371,-3.433 z"
   id="path20" /><path
   style="fill:#9c9b9b"
   d="m 36.579,29.346 c -0.15,-1.204 -0.761,-2.276 -1.723,-3.021 -0.96,-0.742 -2.151,-1.069 -3.363,-0.919 -1.147,0.144 -2.201,0.723 -2.939,1.607 l -4.902,-2.842 c -0.198,0.473 -0.46,0.912 -0.767,1.315 l 4.901,2.842 c -0.258,0.686 -0.347,1.421 -0.257,2.145 0.31,2.481 2.587,4.251 5.086,3.939 1.208,-0.15 2.286,-0.76 3.034,-1.717 0.75,-0.957 1.08,-2.147 0.93,-3.349 z"
   id="path21" /><path
   style="fill:#9c9b9b"
   d="m 12.112,22.219 c -0.007,-0.123 -0.019,-0.245 -0.019,-0.37 0,-0.394 0.04,-0.777 0.113,-1.15 L 6.524,20.3 C 6.3,18.518 4.659,17.244 2.872,17.474 2.005,17.582 1.231,18.02 0.693,18.707 c -0.538,0.688 -0.775,1.542 -0.668,2.406 0.221,1.783 1.86,3.055 3.653,2.83 1.238,-0.154 2.258,-0.977 2.674,-2.129 z"
   id="path22" /><circle
   style="fill:#83b818"
   cx="18.106001"
   cy="21.849001"
   r="6.0120001"
   id="circle22" />
</svg>
